<?xml version="1.0" encoding="UTF-8"?>
<svg xmlns="http://www.w3.org/2000/svg" xmlns:xlink="http://www.w3.org/1999/xlink" width="922.84pt" height="1040pt" viewBox="0 0 922.84 1040" version="1.1">
<defs>
<clipPath id="clip1">
  <path d="M 245 463 L 305 463 L 305 748 L 245 748 Z M 245 463 "/>
</clipPath>
<clipPath id="clip2">
  <path d="M 436.285156 388.710938 C 430.984375 389.722656 426.429688 393.042969 423.507813 397.578125 C 420.4375 402.351563 415.933594 407.722656 414.078125 401.796875 C 411.144531 392.398438 395.875 392.203125 395.875 392.203125 C 392.9375 392.203125 391.585938 395.816406 393.769531 397.785156 C 420.667969 422.074219 389.65625 465.980469 374.132813 484.726563 C 368.816406 491.148438 362.386719 496.566406 355.121094 500.652344 C 283.011719 541.191406 249.65625 463.84375 249.65625 463.84375 C 230.867188 602.230469 285.371094 717.132813 285.371094 717.132813 C 374.527344 883.316406 545.617188 843.972656 545.617188 843.972656 L 548.441406 834.730469 L 564.996094 834.730469 L 567.933594 829.878906 L 577.328125 829.878906 L 620.78125 804.308594 L 622.542969 794.058594 L 631.351563 794.058594 L 643.683594 785.835938 C 643.683594 785.835938 663.0625 763.523438 675.394531 760.585938 C 687.726563 757.648438 685.960938 751.199219 685.960938 751.199219 C 658.363281 738.875 660.710938 688.359375 662.472656 683.660156 C 664.234375 678.960938 654.839844 680.136719 654.839844 680.136719 C 649.554688 690.707031 563.820313 728.878906 563.820313 728.878906 L 578.503906 751.199219 L 567.34375 757.0625 L 567.34375 772.332031 L 555.597656 771.15625 L 543.269531 786.421875 L 533.253906 793.355469 C 521.703125 801.347656 508.601563 806.800781 494.792969 809.347656 C 443.703125 818.773438 323.277344 829.300781 315.425781 721.242188 C 306.847656 603.15625 344.238281 551.78125 354.925781 539.667969 C 357.011719 537.304688 358.894531 534.785156 360.523438 532.085938 C 374.964844 508.105469 440.113281 399.6875 441.679688 392.203125 C 442.265625 389.398438 440.789063 388.464844 438.558594 388.464844 C 437.859375 388.464844 437.089844 388.554688 436.285156 388.710938 "/>
</clipPath>
<clipPath id="clip3">
  <path d="M 297 388 L 442 388 L 442 741 L 297 741 Z M 297 388 "/>
</clipPath>
<clipPath id="clip4">
  <path d="M 436.285156 388.710938 C 430.984375 389.722656 426.429688 393.042969 423.507813 397.578125 C 420.4375 402.351563 415.933594 407.722656 414.078125 401.796875 C 411.144531 392.398438 395.875 392.203125 395.875 392.203125 C 392.9375 392.203125 391.585938 395.816406 393.769531 397.785156 C 420.667969 422.074219 389.65625 465.980469 374.132813 484.726563 C 368.816406 491.148438 362.386719 496.566406 355.121094 500.652344 C 283.011719 541.191406 249.65625 463.84375 249.65625 463.84375 C 230.867188 602.230469 285.371094 717.132813 285.371094 717.132813 C 374.527344 883.316406 545.617188 843.972656 545.617188 843.972656 L 548.441406 834.730469 L 564.996094 834.730469 L 567.933594 829.878906 L 577.328125 829.878906 L 620.78125 804.308594 L 622.542969 794.058594 L 631.351563 794.058594 L 643.683594 785.835938 C 643.683594 785.835938 663.0625 763.523438 675.394531 760.585938 C 687.726563 757.648438 685.960938 751.199219 685.960938 751.199219 C 658.363281 738.875 660.710938 688.359375 662.472656 683.660156 C 664.234375 678.960938 654.839844 680.136719 654.839844 680.136719 C 649.554688 690.707031 563.820313 728.878906 563.820313 728.878906 L 578.503906 751.199219 L 567.34375 757.0625 L 567.34375 772.332031 L 555.597656 771.15625 L 543.269531 786.421875 L 533.253906 793.355469 C 521.703125 801.347656 508.601563 806.800781 494.792969 809.347656 C 443.703125 818.773438 323.277344 829.300781 315.425781 721.242188 C 306.847656 603.15625 344.238281 551.78125 354.925781 539.667969 C 357.011719 537.304688 358.894531 534.785156 360.523438 532.085938 C 374.964844 508.105469 440.113281 399.6875 441.679688 392.203125 C 442.265625 389.398438 440.789063 388.464844 438.558594 388.464844 C 437.859375 388.464844 437.089844 388.554688 436.285156 388.710938 "/>
</clipPath>
<clipPath id="clip5">
  <path d="M 441 680 L 666 680 L 666 839 L 441 839 Z M 441 680 "/>
</clipPath>
<clipPath id="clip6">
  <path d="M 436.285156 388.710938 C 430.984375 389.722656 426.429688 393.042969 423.507813 397.578125 C 420.4375 402.351563 415.933594 407.722656 414.078125 401.796875 C 411.144531 392.398438 395.875 392.203125 395.875 392.203125 C 392.9375 392.203125 391.585938 395.816406 393.769531 397.785156 C 420.667969 422.074219 389.65625 465.980469 374.132813 484.726563 C 368.816406 491.148438 362.386719 496.566406 355.121094 500.652344 C 283.011719 541.191406 249.65625 463.84375 249.65625 463.84375 C 230.867188 602.230469 285.371094 717.132813 285.371094 717.132813 C 374.527344 883.316406 545.617188 843.972656 545.617188 843.972656 L 548.441406 834.730469 L 564.996094 834.730469 L 567.933594 829.878906 L 577.328125 829.878906 L 620.78125 804.308594 L 622.542969 794.058594 L 631.351563 794.058594 L 643.683594 785.835938 C 643.683594 785.835938 663.0625 763.523438 675.394531 760.585938 C 687.726563 757.648438 685.960938 751.199219 685.960938 751.199219 C 658.363281 738.875 660.710938 688.359375 662.472656 683.660156 C 664.234375 678.960938 654.839844 680.136719 654.839844 680.136719 C 649.554688 690.707031 563.820313 728.878906 563.820313 728.878906 L 578.503906 751.199219 L 567.34375 757.0625 L 567.34375 772.332031 L 555.597656 771.15625 L 543.269531 786.421875 L 533.253906 793.355469 C 521.703125 801.347656 508.601563 806.800781 494.792969 809.347656 C 443.703125 818.773438 323.277344 829.300781 315.425781 721.242188 C 306.847656 603.15625 344.238281 551.78125 354.925781 539.667969 C 357.011719 537.304688 358.894531 534.785156 360.523438 532.085938 C 374.964844 508.105469 440.113281 399.6875 441.679688 392.203125 C 442.265625 389.398438 440.789063 388.464844 438.558594 388.464844 C 437.859375 388.464844 437.089844 388.554688 436.285156 388.710938 "/>
</clipPath>
<clipPath id="clip7">
  <path d="M 434 839 L 439 839 L 439 841 L 434 841 Z M 434 839 "/>
</clipPath>
<clipPath id="clip8">
  <path d="M 436.285156 388.710938 C 430.984375 389.722656 426.429688 393.042969 423.507813 397.578125 C 420.4375 402.351563 415.933594 407.722656 414.078125 401.796875 C 411.144531 392.398438 395.875 392.203125 395.875 392.203125 C 392.9375 392.203125 391.585938 395.816406 393.769531 397.785156 C 420.667969 422.074219 389.65625 465.980469 374.132813 484.726563 C 368.816406 491.148438 362.386719 496.566406 355.121094 500.652344 C 283.011719 541.191406 249.65625 463.84375 249.65625 463.84375 C 230.867188 602.230469 285.371094 717.132813 285.371094 717.132813 C 374.527344 883.316406 545.617188 843.972656 545.617188 843.972656 L 548.441406 834.730469 L 564.996094 834.730469 L 567.933594 829.878906 L 577.328125 829.878906 L 620.78125 804.308594 L 622.542969 794.058594 L 631.351563 794.058594 L 643.683594 785.835938 C 643.683594 785.835938 663.0625 763.523438 675.394531 760.585938 C 687.726563 757.648438 685.960938 751.199219 685.960938 751.199219 C 658.363281 738.875 660.710938 688.359375 662.472656 683.660156 C 664.234375 678.960938 654.839844 680.136719 654.839844 680.136719 C 649.554688 690.707031 563.820313 728.878906 563.820313 728.878906 L 578.503906 751.199219 L 567.34375 757.0625 L 567.34375 772.332031 L 555.597656 771.15625 L 543.269531 786.421875 L 533.253906 793.355469 C 521.703125 801.347656 508.601563 806.800781 494.792969 809.347656 C 443.703125 818.773438 323.277344 829.300781 315.425781 721.242188 C 306.847656 603.15625 344.238281 551.78125 354.925781 539.667969 C 357.011719 537.304688 358.894531 534.785156 360.523438 532.085938 C 374.964844 508.105469 440.113281 399.6875 441.679688 392.203125 C 442.265625 389.398438 440.789063 388.464844 438.558594 388.464844 C 437.859375 388.464844 437.089844 388.554688 436.285156 388.710938 "/>
</clipPath>
<clipPath id="clip9">
  <path d="M 437 704 L 687 704 L 687 849 L 437 849 Z M 437 704 "/>
</clipPath>
<clipPath id="clip10">
  <path d="M 436.285156 388.710938 C 430.984375 389.722656 426.429688 393.042969 423.507813 397.578125 C 420.4375 402.351563 415.933594 407.722656 414.078125 401.796875 C 411.144531 392.398438 395.875 392.203125 395.875 392.203125 C 392.9375 392.203125 391.585938 395.816406 393.769531 397.785156 C 420.667969 422.074219 389.65625 465.980469 374.132813 484.726563 C 368.816406 491.148438 362.386719 496.566406 355.121094 500.652344 C 283.011719 541.191406 249.65625 463.84375 249.65625 463.84375 C 230.867188 602.230469 285.371094 717.132813 285.371094 717.132813 C 374.527344 883.316406 545.617188 843.972656 545.617188 843.972656 L 548.441406 834.730469 L 564.996094 834.730469 L 567.933594 829.878906 L 577.328125 829.878906 L 620.78125 804.308594 L 622.542969 794.058594 L 631.351563 794.058594 L 643.683594 785.835938 C 643.683594 785.835938 663.0625 763.523438 675.394531 760.585938 C 687.726563 757.648438 685.960938 751.199219 685.960938 751.199219 C 658.363281 738.875 660.710938 688.359375 662.472656 683.660156 C 664.234375 678.960938 654.839844 680.136719 654.839844 680.136719 C 649.554688 690.707031 563.820313 728.878906 563.820313 728.878906 L 578.503906 751.199219 L 567.34375 757.0625 L 567.34375 772.332031 L 555.597656 771.15625 L 543.269531 786.421875 L 533.253906 793.355469 C 521.703125 801.347656 508.601563 806.800781 494.792969 809.347656 C 443.703125 818.773438 323.277344 829.300781 315.425781 721.242188 C 306.847656 603.15625 344.238281 551.78125 354.925781 539.667969 C 357.011719 537.304688 358.894531 534.785156 360.523438 532.085938 C 374.964844 508.105469 440.113281 399.6875 441.679688 392.203125 C 442.265625 389.398438 440.789063 388.464844 438.558594 388.464844 C 437.859375 388.464844 437.089844 388.554688 436.285156 388.710938 "/>
</clipPath>
<clipPath id="clip11">
  <path d="M 437 685 L 668 685 L 668 841 L 437 841 Z M 437 685 "/>
</clipPath>
<clipPath id="clip12">
  <path d="M 436.285156 388.710938 C 430.984375 389.722656 426.429688 393.042969 423.507813 397.578125 C 420.4375 402.351563 415.933594 407.722656 414.078125 401.796875 C 411.144531 392.398438 395.875 392.203125 395.875 392.203125 C 392.9375 392.203125 391.585938 395.816406 393.769531 397.785156 C 420.667969 422.074219 389.65625 465.980469 374.132813 484.726563 C 368.816406 491.148438 362.386719 496.566406 355.121094 500.652344 C 283.011719 541.191406 249.65625 463.84375 249.65625 463.84375 C 230.867188 602.230469 285.371094 717.132813 285.371094 717.132813 C 374.527344 883.316406 545.617188 843.972656 545.617188 843.972656 L 548.441406 834.730469 L 564.996094 834.730469 L 567.933594 829.878906 L 577.328125 829.878906 L 620.78125 804.308594 L 622.542969 794.058594 L 631.351563 794.058594 L 643.683594 785.835938 C 643.683594 785.835938 663.0625 763.523438 675.394531 760.585938 C 687.726563 757.648438 685.960938 751.199219 685.960938 751.199219 C 658.363281 738.875 660.710938 688.359375 662.472656 683.660156 C 664.234375 678.960938 654.839844 680.136719 654.839844 680.136719 C 649.554688 690.707031 563.820313 728.878906 563.820313 728.878906 L 578.503906 751.199219 L 567.34375 757.0625 L 567.34375 772.332031 L 555.597656 771.15625 L 543.269531 786.421875 L 533.253906 793.355469 C 521.703125 801.347656 508.601563 806.800781 494.792969 809.347656 C 443.703125 818.773438 323.277344 829.300781 315.425781 721.242188 C 306.847656 603.15625 344.238281 551.78125 354.925781 539.667969 C 357.011719 537.304688 358.894531 534.785156 360.523438 532.085938 C 374.964844 508.105469 440.113281 399.6875 441.679688 392.203125 C 442.265625 389.398438 440.789063 388.464844 438.558594 388.464844 C 437.859375 388.464844 437.089844 388.554688 436.285156 388.710938 "/>
</clipPath>
<clipPath id="clip13">
  <path d="M 431 709 L 606 709 L 606 840 L 431 840 Z M 431 709 "/>
</clipPath>
<clipPath id="clip14">
  <path d="M 436.285156 388.710938 C 430.984375 389.722656 426.429688 393.042969 423.507813 397.578125 C 420.4375 402.351563 415.933594 407.722656 414.078125 401.796875 C 411.144531 392.398438 395.875 392.203125 395.875 392.203125 C 392.9375 392.203125 391.585938 395.816406 393.769531 397.785156 C 420.667969 422.074219 389.65625 465.980469 374.132813 484.726563 C 368.816406 491.148438 362.386719 496.566406 355.121094 500.652344 C 283.011719 541.191406 249.65625 463.84375 249.65625 463.84375 C 230.867188 602.230469 285.371094 717.132813 285.371094 717.132813 C 374.527344 883.316406 545.617188 843.972656 545.617188 843.972656 L 548.441406 834.730469 L 564.996094 834.730469 L 567.933594 829.878906 L 577.328125 829.878906 L 620.78125 804.308594 L 622.542969 794.058594 L 631.351563 794.058594 L 643.683594 785.835938 C 643.683594 785.835938 663.0625 763.523438 675.394531 760.585938 C 687.726563 757.648438 685.960938 751.199219 685.960938 751.199219 C 658.363281 738.875 660.710938 688.359375 662.472656 683.660156 C 664.234375 678.960938 654.839844 680.136719 654.839844 680.136719 C 649.554688 690.707031 563.820313 728.878906 563.820313 728.878906 L 578.503906 751.199219 L 567.34375 757.0625 L 567.34375 772.332031 L 555.597656 771.15625 L 543.269531 786.421875 L 533.253906 793.355469 C 521.703125 801.347656 508.601563 806.800781 494.792969 809.347656 C 443.703125 818.773438 323.277344 829.300781 315.425781 721.242188 C 306.847656 603.15625 344.238281 551.78125 354.925781 539.667969 C 357.011719 537.304688 358.894531 534.785156 360.523438 532.085938 C 374.964844 508.105469 440.113281 399.6875 441.679688 392.203125 C 442.265625 389.398438 440.789063 388.464844 438.558594 388.464844 C 437.859375 388.464844 437.089844 388.554688 436.285156 388.710938 "/>
</clipPath>
<clipPath id="clip15">
  <path d="M 438 838 L 442 838 L 442 840 L 438 840 Z M 438 838 "/>
</clipPath>
<clipPath id="clip16">
  <path d="M 436.285156 388.710938 C 430.984375 389.722656 426.429688 393.042969 423.507813 397.578125 C 420.4375 402.351563 415.933594 407.722656 414.078125 401.796875 C 411.144531 392.398438 395.875 392.203125 395.875 392.203125 C 392.9375 392.203125 391.585938 395.816406 393.769531 397.785156 C 420.667969 422.074219 389.65625 465.980469 374.132813 484.726563 C 368.816406 491.148438 362.386719 496.566406 355.121094 500.652344 C 283.011719 541.191406 249.65625 463.84375 249.65625 463.84375 C 230.867188 602.230469 285.371094 717.132813 285.371094 717.132813 C 374.527344 883.316406 545.617188 843.972656 545.617188 843.972656 L 548.441406 834.730469 L 564.996094 834.730469 L 567.933594 829.878906 L 577.328125 829.878906 L 620.78125 804.308594 L 622.542969 794.058594 L 631.351563 794.058594 L 643.683594 785.835938 C 643.683594 785.835938 663.0625 763.523438 675.394531 760.585938 C 687.726563 757.648438 685.960938 751.199219 685.960938 751.199219 C 658.363281 738.875 660.710938 688.359375 662.472656 683.660156 C 664.234375 678.960938 654.839844 680.136719 654.839844 680.136719 C 649.554688 690.707031 563.820313 728.878906 563.820313 728.878906 L 578.503906 751.199219 L 567.34375 757.0625 L 567.34375 772.332031 L 555.597656 771.15625 L 543.269531 786.421875 L 533.253906 793.355469 C 521.703125 801.347656 508.601563 806.800781 494.792969 809.347656 C 443.703125 818.773438 323.277344 829.300781 315.425781 721.242188 C 306.847656 603.15625 344.238281 551.78125 354.925781 539.667969 C 357.011719 537.304688 358.894531 534.785156 360.523438 532.085938 C 374.964844 508.105469 440.113281 399.6875 441.679688 392.203125 C 442.265625 389.398438 440.789063 388.464844 438.558594 388.464844 C 437.859375 388.464844 437.089844 388.554688 436.285156 388.710938 "/>
</clipPath>
<clipPath id="clip17">
  <path d="M 277 500 L 371 500 L 371 806 L 277 806 Z M 277 500 "/>
</clipPath>
<clipPath id="clip18">
  <path d="M 436.285156 388.710938 C 430.984375 389.722656 426.429688 393.042969 423.507813 397.578125 C 420.4375 402.351563 415.933594 407.722656 414.078125 401.796875 C 411.144531 392.398438 395.875 392.203125 395.875 392.203125 C 392.9375 392.203125 391.585938 395.816406 393.769531 397.785156 C 420.667969 422.074219 389.65625 465.980469 374.132813 484.726563 C 368.816406 491.148438 362.386719 496.566406 355.121094 500.652344 C 283.011719 541.191406 249.65625 463.84375 249.65625 463.84375 C 230.867188 602.230469 285.371094 717.132813 285.371094 717.132813 C 374.527344 883.316406 545.617188 843.972656 545.617188 843.972656 L 548.441406 834.730469 L 564.996094 834.730469 L 567.933594 829.878906 L 577.328125 829.878906 L 620.78125 804.308594 L 622.542969 794.058594 L 631.351563 794.058594 L 643.683594 785.835938 C 643.683594 785.835938 663.0625 763.523438 675.394531 760.585938 C 687.726563 757.648438 685.960938 751.199219 685.960938 751.199219 C 658.363281 738.875 660.710938 688.359375 662.472656 683.660156 C 664.234375 678.960938 654.839844 680.136719 654.839844 680.136719 C 649.554688 690.707031 563.820313 728.878906 563.820313 728.878906 L 578.503906 751.199219 L 567.34375 757.0625 L 567.34375 772.332031 L 555.597656 771.15625 L 543.269531 786.421875 L 533.253906 793.355469 C 521.703125 801.347656 508.601563 806.800781 494.792969 809.347656 C 443.703125 818.773438 323.277344 829.300781 315.425781 721.242188 C 306.847656 603.15625 344.238281 551.78125 354.925781 539.667969 C 357.011719 537.304688 358.894531 534.785156 360.523438 532.085938 C 374.964844 508.105469 440.113281 399.6875 441.679688 392.203125 C 442.265625 389.398438 440.789063 388.464844 438.558594 388.464844 C 437.859375 388.464844 437.089844 388.554688 436.285156 388.710938 "/>
</clipPath>
<clipPath id="clip19">
  <path d="M 361 802 L 466 802 L 466 839 L 361 839 Z M 361 802 "/>
</clipPath>
<clipPath id="clip20">
  <path d="M 436.285156 388.710938 C 430.984375 389.722656 426.429688 393.042969 423.507813 397.578125 C 420.4375 402.351563 415.933594 407.722656 414.078125 401.796875 C 411.144531 392.398438 395.875 392.203125 395.875 392.203125 C 392.9375 392.203125 391.585938 395.816406 393.769531 397.785156 C 420.667969 422.074219 389.65625 465.980469 374.132813 484.726563 C 368.816406 491.148438 362.386719 496.566406 355.121094 500.652344 C 283.011719 541.191406 249.65625 463.84375 249.65625 463.84375 C 230.867188 602.230469 285.371094 717.132813 285.371094 717.132813 C 374.527344 883.316406 545.617188 843.972656 545.617188 843.972656 L 548.441406 834.730469 L 564.996094 834.730469 L 567.933594 829.878906 L 577.328125 829.878906 L 620.78125 804.308594 L 622.542969 794.058594 L 631.351563 794.058594 L 643.683594 785.835938 C 643.683594 785.835938 663.0625 763.523438 675.394531 760.585938 C 687.726563 757.648438 685.960938 751.199219 685.960938 751.199219 C 658.363281 738.875 660.710938 688.359375 662.472656 683.660156 C 664.234375 678.960938 654.839844 680.136719 654.839844 680.136719 C 649.554688 690.707031 563.820313 728.878906 563.820313 728.878906 L 578.503906 751.199219 L 567.34375 757.0625 L 567.34375 772.332031 L 555.597656 771.15625 L 543.269531 786.421875 L 533.253906 793.355469 C 521.703125 801.347656 508.601563 806.800781 494.792969 809.347656 C 443.703125 818.773438 323.277344 829.300781 315.425781 721.242188 C 306.847656 603.15625 344.238281 551.78125 354.925781 539.667969 C 357.011719 537.304688 358.894531 534.785156 360.523438 532.085938 C 374.964844 508.105469 440.113281 399.6875 441.679688 392.203125 C 442.265625 389.398438 440.789063 388.464844 438.558594 388.464844 C 437.859375 388.464844 437.089844 388.554688 436.285156 388.710938 "/>
</clipPath>
</defs>
<g id="surface1">
<path style=" stroke:none;fill-rule:nonzero;fill:rgb(36.099243%,14.099121%,10.598755%);fill-opacity:1;" d="M 385.503906 630.222656 L 385.503906 630.226563 L 387.15625 664.359375 C 388.003906 664.203125 388.859375 664.058594 389.714844 663.914063 C 390.558594 663.773438 391.410156 663.640625 392.261719 663.511719 "/>
<path style=" stroke:none;fill-rule:nonzero;fill:rgb(36.099243%,14.099121%,10.598755%);fill-opacity:1;" d="M 412.878906 661.839844 C 413.691406 661.824219 414.503906 661.8125 415.324219 661.8125 C 415.351563 661.8125 415.378906 661.8125 415.40625 661.8125 C 416.253906 661.8125 417.089844 661.824219 417.929688 661.839844 L 417.210938 600.863281 "/>
<path style=" stroke:none;fill-rule:nonzero;fill:rgb(36.099243%,14.099121%,10.598755%);fill-opacity:1;" d="M 474.367188 572.285156 L 433.527344 662.871094 C 434.429688 662.972656 435.332031 663.082031 436.226563 663.203125 C 437.113281 663.320313 437.992188 663.449219 438.867188 663.582031 L 474.367188 572.285156 "/>
<path style=" stroke:none;fill-rule:nonzero;fill:rgb(36.099243%,14.099121%,10.598755%);fill-opacity:1;" d="M 548.4375 550.757813 L 452.636719 666.324219 C 453.542969 666.550781 454.445313 666.78125 455.347656 667.023438 C 456.230469 667.257813 457.105469 667.503906 457.980469 667.757813 L 548.441406 550.753906 "/>
<path style=" stroke:none;fill-rule:nonzero;fill:rgb(36.099243%,14.099121%,10.598755%);fill-opacity:1;" d="M 471.523438 672.367188 C 472.394531 672.710938 473.261719 673.0625 474.121094 673.421875 C 474.960938 673.773438 475.796875 674.132813 476.628906 674.496094 L 548.441406 600.863281 "/>
<path style=" stroke:none;fill-rule:nonzero;fill:rgb(36.099243%,14.099121%,10.598755%);fill-opacity:1;" d="M 552.273438 627.484375 L 488.539063 680.429688 C 489.296875 680.855469 490.054688 681.28125 490.804688 681.71875 C 491.539063 682.144531 492.261719 682.582031 492.980469 683.019531 L 552.269531 627.484375 "/>
<path style=" stroke:none;fill-rule:nonzero;fill:rgb(36.099243%,14.099121%,10.598755%);fill-opacity:1;" d="M 555.402344 664.675781 L 505.1875 691.394531 C 505.878906 691.925781 506.5625 692.460938 507.238281 693.007813 C 507.890625 693.53125 508.539063 694.058594 509.183594 694.59375 L 555.402344 664.675781 "/>
<path style=" stroke:none;fill-rule:nonzero;fill:rgb(0%,0%,0%);fill-opacity:1;" d="M 471.523438 813.730469 C 480.074219 813.367188 487.507813 811.800781 493.996094 809.492188 C 487.644531 810.648438 480.277344 811.808594 472.210938 812.757813 "/>
<path style=" stroke:none;fill-rule:nonzero;fill:rgb(36.099243%,14.099121%,10.598755%);fill-opacity:1;" d="M 525.148438 740.238281 C 524.949219 739.8125 524.746094 739.386719 524.539063 738.960938 C 506.617188 702.113281 464.46875 676.238281 415.324219 676.238281 C 377.609375 676.238281 344.011719 691.476563 322.324219 715.21875 C 317.808594 720.160156 315.800781 726.925781 316.898438 733.527344 C 330.632813 815.828125 417.402344 819.214844 472.210938 812.761719 C 479.453125 811.90625 486.136719 810.882813 492.019531 809.84375 C 493.339844 809.613281 494.636719 809.273438 495.882813 808.789063 C 500.40625 807.023438 504.429688 804.890625 508.007813 802.546875 C 528.464844 789.136719 535.515625 762.398438 525.148438 740.238281 "/>
<path style=" stroke:none;fill-rule:nonzero;fill:rgb(97.299194%,92.199707%,0.799561%);fill-opacity:1;" d="M 317.675781 737.761719 C 331.691406 806.4375 398.75 817.230469 451.359375 814.535156 C 453.0625 814.449219 454.746094 814.125 456.355469 813.542969 C 488.199219 801.996094 509.984375 778.605469 509.984375 751.632813 C 509.984375 713.199219 465.773438 682.046875 411.238281 682.046875 C 369.6875 682.046875 334.148438 700.136719 319.574219 725.746094 C 317.507813 729.378906 316.839844 733.667969 317.675781 737.761719 "/>
<path style=" stroke:none;fill-rule:nonzero;fill:rgb(97.299194%,92.199707%,0.799561%);fill-opacity:1;" d="M 416.019531 399.925781 L 416.019531 285.882813 C 411.371094 274.628906 346.152344 236.386719 237.429688 251.152344 C 237.429688 258.46875 236.785156 362.007813 236.785156 372.011719 C 311.367188 363.5625 378.519531 377.792969 416.019531 399.925781 "/>
<path style=" stroke:none;fill-rule:nonzero;fill:rgb(36.099243%,14.099121%,10.598755%);fill-opacity:1;" d="M 410.425781 401.074219 C 384.078125 394.699219 333.503906 375.691406 254.03125 386.570313 L 254.03125 260.34375 C 254.03125 260.34375 258.070313 258.585938 259.75 258.898438 C 259.75 261.617188 259.257813 377.441406 259.257813 379.316406 C 330.105469 369.1875 381.738281 386.820313 410.425781 401.074219 "/>
<path style=" stroke:none;fill-rule:nonzero;fill:rgb(97.299194%,92.199707%,0.799561%);fill-opacity:1;" d="M 420.40625 399.925781 L 420.40625 285.882813 C 425.054688 274.628906 490.273438 236.386719 598.996094 251.152344 C 598.996094 258.46875 599.640625 362.007813 599.640625 372.011719 C 525.058594 363.5625 457.90625 377.792969 420.40625 399.925781 "/>
<path style=" stroke:none;fill-rule:nonzero;fill:rgb(36.099243%,14.099121%,10.598755%);fill-opacity:1;" d="M 425.996094 401.074219 C 452.347656 394.699219 502.921875 375.691406 582.394531 386.570313 L 582.394531 260.34375 C 582.394531 260.34375 578.355469 258.585938 576.675781 258.898438 C 576.675781 261.617188 577.171875 377.441406 577.171875 379.316406 C 506.320313 369.1875 454.6875 386.820313 425.996094 401.074219 "/>
<path style=" stroke:none;fill-rule:nonzero;fill:rgb(36.099243%,14.099121%,10.598755%);fill-opacity:1;" d="M 353.5 483.914063 C 371.652344 468.984375 377.308594 445.867188 366.132813 432.28125 C 354.960938 418.695313 331.1875 419.785156 313.03125 434.714844 C 294.878906 449.644531 289.222656 472.765625 300.398438 486.351563 C 311.570313 499.9375 335.347656 498.847656 353.5 483.914063 "/>
<path style=" stroke:none;fill-rule:nonzero;fill:rgb(97.299194%,92.498779%,0.39978%);fill-opacity:1;" d="M 357.628906 475.335938 C 369.84375 465.285156 373.652344 449.726563 366.132813 440.582031 C 358.609375 431.4375 342.609375 432.171875 330.390625 442.21875 C 318.171875 452.269531 314.363281 467.828125 321.886719 476.972656 C 329.40625 486.117188 345.410156 485.386719 357.628906 475.335938 "/>
<g clip-path="url(#clip1)" clip-rule="nonzero">
<g clip-path="url(#clip2)" clip-rule="nonzero">
<path style=" stroke:none;fill-rule:nonzero;fill:rgb(97.299194%,92.199707%,0.799561%);fill-opacity:1;" d="M 249.65625 463.84375 C 230.867188 602.234375 285.371094 717.132813 285.371094 717.132813 C 291.359375 728.289063 297.714844 738.511719 304.363281 747.890625 C 291.804688 728.546875 285.570313 579.503906 283.171875 503.070313 C 260.5 488.96875 249.65625 463.84375 249.65625 463.84375 "/>
</g>
</g>
<g clip-path="url(#clip3)" clip-rule="nonzero">
<g clip-path="url(#clip4)" clip-rule="nonzero">
<path style=" stroke:none;fill-rule:nonzero;fill:rgb(36.099243%,14.099121%,10.598755%);fill-opacity:1;" d="M 305.082031 680.082031 C 305.480469 688.730469 307.679688 724.308594 317.324219 740.621094 L 317.953125 739.058594 C 316.75 733.507813 315.890625 727.589844 315.425781 721.242188 C 306.847656 603.15625 344.238281 551.78125 354.925781 539.667969 C 357.011719 537.304688 358.894531 534.785156 360.523438 532.085938 C 374.964844 508.105469 440.113281 399.6875 441.679688 392.203125 C 442.449219 388.519531 439.664063 388.0625 436.28125 388.707031 C 430.980469 389.722656 426.429688 393.042969 423.507813 397.582031 C 420.4375 402.351563 415.933594 407.722656 414.078125 401.796875 C 411.144531 392.398438 395.878906 392.203125 395.878906 392.203125 C 392.9375 392.203125 391.585938 395.816406 393.769531 397.785156 C 420.667969 422.070313 389.65625 465.980469 374.132813 484.726563 C 368.8125 491.148438 362.386719 496.566406 355.121094 500.652344 C 353.480469 501.570313 351.871094 502.410156 350.269531 503.214844 C 327.496094 535.695313 278.910156 616.1875 305.082031 680.082031 "/>
</g>
</g>
<g clip-path="url(#clip5)" clip-rule="nonzero">
<g clip-path="url(#clip6)" clip-rule="nonzero">
<path style=" stroke:none;fill-rule:nonzero;fill:rgb(43.499756%,65.899658%,96.899414%);fill-opacity:1;" d="M 485.132813 828.703125 C 485.132813 828.703125 461.203125 834.039063 441.765625 838.339844 C 563.152344 848.675781 658.949219 700.691406 658.949219 700.691406 L 661.546875 692.90625 C 664.015625 688.433594 665.234375 685.601563 665.628906 684.539063 C 667.394531 679.84375 654.839844 680.136719 654.839844 680.136719 C 652.113281 685.59375 627.941406 698.40625 605.195313 709.523438 C 604.761719 800.449219 485.132813 828.703125 485.132813 828.703125 "/>
</g>
</g>
<g clip-path="url(#clip7)" clip-rule="nonzero">
<g clip-path="url(#clip8)" clip-rule="nonzero">
<path style=" stroke:none;fill-rule:nonzero;fill:rgb(43.499756%,65.899658%,96.899414%);fill-opacity:1;" d="M 434.230469 840.007813 C 435.429688 840.136719 436.617188 840.226563 437.8125 840.332031 L 438.4375 839.074219 C 436.996094 839.394531 435.585938 839.707031 434.230469 840.007813 "/>
</g>
</g>
<g clip-path="url(#clip9)" clip-rule="nonzero">
<g clip-path="url(#clip10)" clip-rule="nonzero">
<path style=" stroke:none;fill-rule:nonzero;fill:rgb(36.099243%,14.099121%,10.598755%);fill-opacity:1;" d="M 545.617188 843.972656 L 548.441406 834.730469 L 564.996094 834.730469 L 567.929688 829.878906 L 577.328125 829.878906 L 620.78125 804.308594 L 622.542969 794.058594 L 631.351563 794.058594 L 643.683594 785.835938 C 643.683594 785.835938 663.0625 763.523438 675.390625 760.585938 C 687.722656 757.652344 685.964844 751.199219 685.964844 751.199219 C 668.882813 743.570313 663.277344 721.316406 661.898438 704.347656 C 639.882813 735.605469 550.996094 850.257813 437.8125 840.332031 L 437.804688 840.34375 C 496.839844 855.183594 545.617188 843.972656 545.617188 843.972656 "/>
</g>
</g>
<g clip-path="url(#clip11)" clip-rule="nonzero">
<g clip-path="url(#clip12)" clip-rule="nonzero">
<path style=" stroke:none;fill-rule:nonzero;fill:rgb(36.099243%,14.099121%,10.598755%);fill-opacity:1;" d="M 667.171875 696.578125 L 663.890625 685.875 L 658.949219 700.691406 C 658.949219 700.691406 563.152344 848.675781 441.765625 838.339844 C 440.640625 838.589844 439.527344 838.835938 438.441406 839.074219 L 437.8125 840.332031 C 568.738281 851.8125 667.171875 696.578125 667.171875 696.578125 "/>
</g>
</g>
<g clip-path="url(#clip13)" clip-rule="nonzero">
<g clip-path="url(#clip14)" clip-rule="nonzero">
<path style=" stroke:none;fill-rule:nonzero;fill:rgb(97.299194%,92.199707%,0.799561%);fill-opacity:1;" d="M 438.929688 838.101563 C 439.878906 838.199219 440.820313 838.261719 441.765625 838.339844 C 461.203125 834.039063 485.132813 828.703125 485.132813 828.703125 C 485.132813 828.703125 604.761719 800.449219 605.195313 709.527344 C 583.882813 719.945313 563.820313 728.875 563.820313 728.875 L 578.503906 751.199219 L 567.34375 757.0625 L 567.34375 772.328125 L 555.601563 771.15625 L 543.269531 786.421875 L 533.253906 793.355469 C 521.703125 801.347656 508.601563 806.800781 494.789063 809.347656 C 486.308594 810.910156 475.90625 812.503906 464.433594 813.585938 C 451.929688 824.75 440.445313 833.871094 431.714844 838.726563 C 432.960938 839.078125 434.203125 839.410156 435.445313 839.738281 C 436.425781 839.519531 437.421875 839.300781 438.4375 839.078125 "/>
</g>
</g>
<g clip-path="url(#clip15)" clip-rule="nonzero">
<g clip-path="url(#clip16)" clip-rule="nonzero">
<path style=" stroke:none;fill-rule:nonzero;fill:rgb(97.299194%,92.199707%,0.799561%);fill-opacity:1;" d="M 438.4375 839.074219 C 439.527344 838.835938 440.636719 838.589844 441.765625 838.339844 C 440.816406 838.261719 439.878906 838.199219 438.925781 838.097656 "/>
</g>
</g>
<g clip-path="url(#clip17)" clip-rule="nonzero">
<g clip-path="url(#clip18)" clip-rule="nonzero">
<path style=" stroke:none;fill-rule:nonzero;fill:rgb(43.499756%,65.899658%,96.899414%);fill-opacity:1;" d="M 318.148438 740.027344 C 311.929688 724.179688 307.195313 704.464844 305.203125 679.941406 C 298.136719 592.980469 335.292969 527.933594 353.878906 501.320313 C 321.207031 519.191406 296.582031 512.796875 279.496094 500.621094 L 279.410156 505.339844 C 279.410156 505.339844 265.945313 656.3125 304.410156 747.953125 C 321.996094 772.75 341.628906 791.585938 361.890625 805.828125 L 370.199219 802.972656 C 345.589844 792.285156 325.589844 773.050781 318.148438 740.027344 "/>
</g>
</g>
<g clip-path="url(#clip19)" clip-rule="nonzero">
<g clip-path="url(#clip20)" clip-rule="nonzero">
<path style=" stroke:none;fill-rule:nonzero;fill:rgb(36.099243%,14.099121%,10.598755%);fill-opacity:1;" d="M 465.511719 813.480469 C 436.320313 816.324219 399.90625 815.875 370.199219 802.972656 L 361.890625 805.828125 C 385.382813 822.34375 409.71875 832.6875 432.691406 839 C 432.785156 838.960938 432.878906 838.925781 432.96875 838.882813 C 448.800781 831.445313 460.511719 819.28125 465.511719 813.480469 "/>
</g>
</g>
<path style=" stroke:none;fill-rule:nonzero;fill:rgb(36.099243%,14.099121%,10.598755%);fill-opacity:1;" d="M 249.8125 464.878906 C 240.34375 535.929688 250.519531 600.542969 260.753906 642.316406 C 271.894531 687.78125 285.503906 716.71875 285.636719 717.007813 C 331.625 802.730469 399.839844 832.609375 448.960938 842.578125 C 500.535156 853.046875 542.425781 844.367188 545.386719 843.722656 L 548.226563 834.4375 L 564.828125 834.4375 L 567.765625 829.585938 L 577.246094 829.585938 L 620.515625 804.125 L 622.296875 793.765625 L 631.261719 793.765625 L 643.488281 785.613281 C 644.597656 784.34375 663.152344 763.199219 675.324219 760.300781 C 680.164063 759.148438 683.492188 757.253906 684.945313 754.820313 C 685.90625 753.214844 685.777344 751.824219 685.707031 751.402344 C 658.390625 739.035156 660.234375 688.804688 662.199219 683.558594 C 662.507813 682.738281 662.464844 682.097656 662.070313 681.597656 C 660.738281 679.90625 655.941406 680.316406 655.023438 680.410156 C 649.222656 690.914063 570.773438 726.09375 564.253906 729.003906 L 578.925781 751.308594 L 567.636719 757.238281 L 567.636719 772.652344 L 555.730469 771.464844 L 543.433594 786.664063 L 533.417969 793.597656 C 521.757813 801.667969 508.78125 807.066406 494.847656 809.636719 C 458.1875 816.398438 390.527344 822.984375 349.257813 791.09375 C 328.835938 775.3125 317.355469 751.816406 315.136719 721.265625 C 306.605469 603.871094 343.265625 552.441406 354.707031 539.476563 C 356.847656 537.046875 358.722656 534.511719 360.273438 531.933594 C 373.546875 509.898438 439.828125 399.609375 441.394531 392.144531 C 441.648438 390.925781 441.503906 390.035156 440.96875 389.488281 C 440.210938 388.71875 438.652344 388.550781 436.339844 388.996094 C 431.296875 389.960938 426.710938 393.148438 423.753906 397.738281 C 420.625 402.597656 418.082031 404.941406 416.199219 404.679688 C 415.144531 404.535156 414.335938 403.59375 413.800781 401.882813 C 410.960938 392.800781 396.023438 392.496094 395.871094 392.496094 C 394.652344 392.496094 393.621094 393.203125 393.183594 394.339844 C 392.835938 395.242188 392.855469 396.566406 393.964844 397.566406 C 421.195313 422.152344 389.324219 466.84375 374.355469 484.914063 C 368.949219 491.441406 362.523438 496.824219 355.261719 500.90625 C 334.148438 512.777344 314.273438 515.703125 296.199219 509.597656 C 267.6875 499.96875 252.480469 470.472656 249.8125 464.878906 M 500.878906 848.296875 C 485.871094 848.296875 468.039063 847.046875 448.871094 843.15625 C 417.527344 836.800781 388.796875 824.734375 363.480469 807.300781 C 331.839844 785.507813 305.472656 755.21875 285.117188 717.269531 C 284.972656 716.96875 271.339844 687.980469 260.1875 642.453125 C 249.890625 600.4375 239.65625 535.339844 249.367188 463.804688 L 249.511719 462.761719 L 249.925781 463.730469 C 250.078125 464.074219 265.246094 498.527344 296.390625 509.046875 C 314.304688 515.09375 334.011719 512.183594 354.976563 500.398438 C 362.175781 496.347656 368.546875 491.015625 373.90625 484.539063 C 388.765625 466.597656 420.425781 422.25 393.570313 398.003906 C 392.460938 397 392.105469 395.515625 392.636719 394.128906 C 393.164063 392.761719 394.402344 391.910156 395.875 391.910156 C 396.511719 391.921875 411.394531 392.21875 414.359375 401.707031 C 414.820313 403.183594 415.464844 403.988281 416.277344 404.101563 C 417.855469 404.308594 420.351563 401.945313 423.265625 397.421875 C 426.304688 392.695313 431.03125 389.417969 436.230469 388.421875 C 438.746094 387.941406 440.480469 388.160156 441.382813 389.078125 C 442.066406 389.773438 442.265625 390.84375 441.964844 392.265625 C 440.421875 399.632813 379.429688 501.261719 360.773438 532.234375 C 359.203125 534.84375 357.308594 537.40625 355.144531 539.859375 C 343.742188 552.785156 307.207031 604.058594 315.71875 721.222656 C 317.925781 751.605469 329.332031 774.957031 349.613281 790.632813 C 390.703125 822.382813 458.175781 815.808594 494.738281 809.058594 C 508.59375 806.503906 521.492188 801.140625 533.085938 793.117188 L 543.066406 786.207031 L 555.472656 770.851563 L 567.050781 772.007813 L 567.050781 756.886719 L 578.078125 751.089844 L 563.386719 728.75 L 563.703125 728.609375 C 564.558594 728.230469 649.398438 690.363281 654.578125 680.007813 L 654.648438 679.867188 L 654.804688 679.847656 C 655.050781 679.816406 660.859375 679.117188 662.53125 681.234375 C 663.054688 681.898438 663.128906 682.75 662.746094 683.765625 C 660.796875 688.964844 658.949219 738.816406 686.082031 750.933594 L 686.210938 750.988281 L 686.246094 751.121094 C 686.265625 751.195313 686.726563 752.964844 685.460938 755.101563 C 683.90625 757.71875 680.542969 759.660156 675.460938 760.871094 C 663.363281 763.75 644.097656 785.804688 643.902344 786.027344 L 643.847656 786.078125 L 631.441406 794.351563 L 622.789063 794.351563 L 621.046875 804.492188 L 577.40625 830.171875 L 568.097656 830.171875 L 565.160156 835.023438 L 548.65625 835.023438 L 545.847656 844.21875 L 545.683594 844.257813 C 545.410156 844.320313 527.644531 848.296875 500.878906 848.296875 "/>
<path style=" stroke:none;fill-rule:nonzero;fill:rgb(43.499756%,65.899658%,96.899414%);fill-opacity:1;" d="M 269.132813 251.152344 C 269.132813 258.46875 268.601563 362.007813 268.601563 372.011719 C 330.105469 363.5625 385.480469 377.792969 416.40625 399.925781 L 416.40625 285.882813 C 412.570313 274.628906 358.792969 236.386719 269.132813 251.152344 "/>
<path style=" stroke:none;fill-rule:nonzero;fill:rgb(43.499756%,65.899658%,96.899414%);fill-opacity:1;" d="M 567.292969 251.152344 C 477.636719 236.386719 423.855469 274.628906 420.023438 285.882813 L 420.023438 399.925781 C 450.945313 377.792969 506.320313 363.5625 567.824219 372.011719 C 567.824219 362.007813 567.292969 258.46875 567.292969 251.152344 "/>
<path style=" stroke:none;fill-rule:nonzero;fill:rgb(2.398682%,2.398682%,34.498596%);fill-opacity:1;" d="M 527.78125 1007.988281 C 523.351563 1001.199219 520.226563 994.277344 518.035156 987.667969 C 510.976563 966.390625 513.585938 948.339844 513.585938 948.339844 C 485.386719 942.394531 463.664063 948.339844 463.664063 948.339844 C 462.65625 962.726563 464.207031 975.503906 467.117188 986.628906 C 469.085938 994.148438 471.664063 1000.925781 474.523438 1006.902344 C 484.910156 1028.617188 498.792969 1040 498.792969 1040 L 558.425781 1036.53125 C 544.3125 1028.378906 534.535156 1018.335938 527.78125 1007.988281 "/>
<path style=" stroke:none;fill-rule:nonzero;fill:rgb(2.398682%,2.398682%,34.498596%);fill-opacity:1;" d="M 447.050781 1006.339844 C 445.390625 999.746094 444.019531 992.835938 442.894531 986.132813 C 439.324219 964.859375 438.238281 945.699219 438.238281 945.695313 C 407.960938 933.269531 400.914063 944.003906 400.910156 944.003906 C 393.144531 957.40625 393.917969 973.414063 396.21875 985.179688 C 396.859375 988.46875 397.621094 991.429688 398.351563 993.90625 C 399.636719 998.28125 397.9375 1002.882813 394.539063 1005.269531 L 379.074219 1004.953125 C 372.683594 1001.171875 368.621094 993.167969 370.089844 984.636719 C 370.132813 984.378906 370.171875 984.121094 370.226563 983.863281 L 374.042969 965.742188 L 345.097656 960.910156 L 345.09375 960.910156 L 337.03125 981.878906 L 334.523438 988.410156 C 322.5625 988.039063 305.574219 975.777344 305.574219 975.777344 L 305.714844 975.5 L 318.226563 951.25 L 285.464844 933.96875 L 265.703125 957.753906 C 263.578125 958.359375 261.355469 958.617188 259.070313 958.59375 C 242.800781 958.421875 223.378906 943.675781 213.527344 935.183594 C 211.441406 933.386719 209.75 931.144531 208.546875 928.621094 C 207.800781 927.0625 207.238281 925.390625 206.890625 923.652344 C 205.570313 917.046875 200.296875 918.5625 197.347656 919.992188 C 196.144531 920.578125 195.328125 921.148438 195.328125 921.148438 C 195.328125 921.148438 184.277344 925.617188 175.195313 926.410156 C 172.5625 926.640625 170.097656 926.566406 168.113281 925.980469 C 159.273438 923.378906 161.695313 931.925781 161.695313 931.925781 C 198.039063 972.644531 246.386719 990.265625 258.96875 994.332031 C 260.855469 994.945313 262.886719 994.238281 264.101563 992.574219 C 265.773438 990.277344 268.003906 987.050781 268.824219 985.066406 C 268.917969 984.839844 269.03125 984.632813 269.15625 984.4375 C 270.90625 981.707031 275.726563 981.660156 280.09375 983.394531 C 282.566406 984.375 282.5625 986.960938 282.015625 989.183594 C 281.527344 991.160156 280.613281 992.847656 280.613281 992.847656 L 277.492188 997.460938 C 276.015625 999.640625 276.839844 1002.734375 279.175781 1003.722656 C 288.714844 1007.742188 312.339844 1014.171875 323.191406 1017.042969 C 326.210938 1017.84375 329.21875 1015.703125 329.707031 1012.410156 L 330.015625 1010.335938 C 330.015625 1010.335938 331.574219 1005.316406 338.507813 1006.246094 C 345.441406 1007.175781 343.015625 1014.792969 343.015625 1014.792969 L 342.894531 1015.964844 C 342.339844 1021.277344 345.554688 1026.175781 350.394531 1027.476563 C 372.339844 1033.363281 430.742188 1037.800781 453.800781 1039.375 C 457.007813 1039.597656 458.976563 1035.78125 457.183594 1032.925781 C 452.976563 1026.230469 449.65625 1016.679688 447.050781 1006.339844 "/>
<path style=" stroke:none;fill-rule:nonzero;fill:rgb(2.398682%,2.398682%,34.498596%);fill-opacity:1;" d="M 751.402344 970.082031 L 739.386719 980.183594 C 736.25 982.816406 735.699219 987.683594 738.160156 991.042969 C 740.621094 994.40625 745.15625 994.996094 748.296875 992.359375 L 760.308594 982.261719 C 763.449219 979.621094 763.996094 974.757813 761.535156 971.394531 C 759.074219 968.035156 754.539063 967.445313 751.402344 970.082031 "/>
<path style=" stroke:none;fill-rule:nonzero;fill:rgb(2.398682%,2.398682%,34.498596%);fill-opacity:1;" d="M 780.621094 945.523438 L 768.605469 955.621094 C 765.46875 958.257813 764.921875 963.121094 767.382813 966.484375 C 769.84375 969.847656 774.378906 970.433594 777.515625 967.796875 L 789.53125 957.699219 C 792.667969 955.0625 793.21875 950.199219 790.757813 946.835938 C 788.296875 943.472656 783.757813 942.882813 780.621094 945.523438 "/>
<path style=" stroke:none;fill-rule:nonzero;fill:rgb(2.398682%,2.398682%,34.498596%);fill-opacity:1;" d="M 63.675781 831.617188 C 62.554688 825.636719 62.050781 819.304688 62.269531 812.703125 C 62.433594 807.601563 59.453125 803.683594 54.921875 804.433594 C 50.40625 805.164063 46.136719 810.960938 46.132813 816.863281 C 46.097656 824.324219 46.855469 831.492188 48.304688 838.277344 C 49.46875 843.65625 54.136719 845.75 58.199219 843.554688 C 62.285156 841.34375 64.53125 836.253906 63.675781 831.617188 "/>
<path style=" stroke:none;fill-rule:nonzero;fill:rgb(2.398682%,2.398682%,34.498596%);fill-opacity:1;" d="M 72.046875 854.964844 C 69.953125 851.230469 65.328125 849.652344 61.359375 852.054688 C 57.394531 854.445313 55.933594 860.476563 58.519531 864.851563 C 61.757813 870.386719 65.550781 875.4375 69.804688 879.945313 C 73.195313 883.523438 78.464844 883.03125 81.363281 879.523438 C 84.277344 875.984375 84.285156 871.175781 81.53125 868.132813 C 77.949219 864.214844 74.757813 859.8125 72.046875 854.964844 "/>
<path style=" stroke:none;fill-rule:nonzero;fill:rgb(2.398682%,2.398682%,34.498596%);fill-opacity:1;" d="M 108.207031 897.917969 C 106.109375 894.183594 101.484375 892.605469 97.519531 895.007813 C 93.554688 897.398438 92.09375 903.429688 94.675781 907.804688 C 97.914063 913.339844 101.710938 918.386719 105.964844 922.898438 C 109.351563 926.476563 114.621094 925.984375 117.523438 922.476563 C 120.4375 918.9375 120.445313 914.128906 117.6875 911.085938 C 114.105469 907.167969 110.914063 902.761719 108.207031 897.917969 "/>
<path style=" stroke:none;fill-rule:nonzero;fill:rgb(2.398682%,2.398682%,34.498596%);fill-opacity:1;" d="M 607.296875 979.070313 C 607.296875 973.476563 611.527344 968.941406 616.75 968.941406 C 620.570313 968.941406 623.851563 971.375 625.339844 974.871094 C 625.886719 976.152344 626.199219 977.570313 626.199219 979.070313 C 626.199219 984.664063 621.96875 989.199219 616.75 989.199219 C 611.816406 989.199219 607.769531 985.144531 607.339844 979.976563 C 607.316406 979.675781 607.296875 979.375 607.296875 979.070313 M 860.96875 754.488281 C 860.96875 754.488281 857.117188 752.953125 852.15625 752.222656 C 843.96875 751.011719 832.75 751.980469 830.804688 765.632813 C 828.738281 780.148438 817.5625 799.214844 810.238281 810.449219 C 806.5 816.1875 803.765625 819.886719 803.765625 819.886719 C 787.46875 819.144531 797.523438 803.167969 797.523438 803.167969 C 797.523438 803.167969 814.164063 766.378906 819.710938 750.769531 C 823.484375 740.15625 822.125 727.304688 820.867188 720.171875 C 820.359375 717.28125 818.25 714.9375 815.421875 714.152344 C 811.5625 713.078125 809.117188 710.261719 792.324219 702.835938 C 770.480469 693.171875 770.136719 708.40625 770.136719 708.40625 C 779.496094 728.101563 764.589844 772.324219 764.589844 772.324219 C 760.082031 788.546875 736.851563 823.605469 732 829.550781 C 727.144531 835.496094 732.347656 836.609375 732.347656 836.609375 L 787.195313 849.984375 L 797.871094 852.589844 C 797.871094 852.589844 825.953125 805.765625 829.070313 800.566406 C 831.167969 797.070313 833.84375 795.671875 836.980469 795.746094 C 838.515625 795.785156 840.15625 796.171875 841.898438 796.847656 C 845.714844 798.335938 845.492188 802.070313 845.34375 806.058594 C 845.21875 809.496094 844.277344 812.828125 842.652344 815.796875 C 836.253906 827.472656 816.417969 863.179688 808.617188 871.539063 C 804.316406 876.152344 797.449219 876.914063 791.289063 876.394531 C 790.3125 876.3125 789.355469 876.199219 788.425781 876.0625 C 783.363281 875.320313 778.621094 873.109375 774.390625 870.042969 C 774.023438 869.777344 773.632813 869.515625 773.226563 869.253906 C 759.335938 860.234375 722.292969 851.847656 722.292969 851.847656 C 722.292969 851.847656 718.480469 849.246094 704.265625 863.367188 C 690.050781 877.484375 696.984375 880.832031 696.984375 880.832031 C 715.265625 875.511719 737.476563 886.851563 747.328125 892.769531 C 748.597656 893.535156 749.929688 894.183594 751.300781 894.691406 C 752.914063 895.289063 754.589844 895.691406 756.300781 895.808594 C 765.648438 896.453125 763.882813 907.675781 763.585938 909.253906 C 763.5625 909.375 763.546875 909.445313 763.546875 909.445313 C 763.546875 909.445313 759.386719 914.273438 751.761719 924.679688 C 748.636719 928.945313 744.867188 930.335938 741.515625 930.496094 C 736.679688 930.722656 732.691406 928.394531 732.691406 928.394531 L 729.226563 920.21875 C 729.226563 920.21875 728.140625 919.300781 725.761719 918.78125 C 722.28125 918.023438 716.027344 918.113281 706.34375 923.191406 C 701.339844 925.816406 698.886719 928.476563 697.890625 930.902344 C 696.707031 933.78125 697.832031 936.769531 699.941406 938.359375 C 701.285156 939.375 703.023438 939.828125 704.828125 939.3125 C 710.496094 937.699219 719.746094 936.253906 716.050781 945.488281 C 710.851563 958.496094 688.316406 957.382813 688.316406 957.382813 C 688.316406 957.382813 683.871094 955.203125 678.085938 951.859375 C 669.320313 946.796875 657.476563 939.050781 653.300781 932.113281 C 646.367188 920.59375 638.394531 927.28125 638.394531 927.28125 C 618.285156 942.886719 552.414063 959.238281 552.414063 959.238281 C 537.980469 964.042969 544.269531 979.566406 548.96875 987.945313 L 549.023438 988.042969 C 551.105469 991.738281 554.039063 994.875 557.554688 997.246094 C 561.230469 999.722656 566.824219 1003.078125 574.179688 1006.296875 C 587.53125 1012.140625 606.6875 1017.546875 630.765625 1016.464844 C 680.34375 1014.234375 711.175781 982.648438 711.175781 982.648438 C 711.175781 982.648438 711.546875 975.589844 711.199219 972.988281 C 711.0625 971.976563 711.609375 971.300781 712.328125 970.855469 C 713.636719 970.042969 715.289063 970.230469 716.515625 971.183594 L 717.40625 971.882813 C 718.328125 972.601563 719.441406 972.988281 720.578125 972.988281 L 726.679688 972.988281 C 727.664063 972.988281 728.632813 972.699219 729.476563 972.152344 L 748.0625 960.074219 C 750.203125 958.683594 751.503906 956.152344 751.34375 953.476563 C 751.230469 951.519531 750.734375 949.464844 749.335938 948.464844 C 746.214844 946.234375 753.492188 944.003906 753.492188 944.003906 C 753.492188 944.003906 759.039063 945.117188 764.589844 946.605469 C 768.855469 947.75 788.085938 927.574219 796.742188 918.191406 C 798.777344 915.988281 798.058594 912.273438 795.371094 911.121094 L 792.019531 909.683594 C 789.546875 908.625 787.875 906.074219 787.871094 903.222656 C 787.871094 901.671875 788.191406 900.019531 789.203125 898.667969 C 791.007813 896.253906 793.394531 897.605469 794.84375 898.847656 C 796.101563 899.921875 797.527344 900.742188 799.023438 901.375 L 805.976563 904.316406 C 808.078125 905.207031 810.480469 904.824219 812.210938 903.265625 C 842.113281 876.367188 866.773438 807.664063 874.835938 785.699219 C 883.15625 763.035156 860.96875 754.488281 860.96875 754.488281 "/>
<path style=" stroke:none;fill-rule:nonzero;fill:rgb(2.398682%,2.398682%,34.498596%);fill-opacity:1;" d="M 89.363281 769.878906 C 89.363281 768.355469 89.683594 766.914063 90.246094 765.617188 C 91.75 762.15625 95.015625 759.75 98.8125 759.75 C 104.03125 759.75 108.261719 764.285156 108.261719 769.878906 C 108.261719 775.472656 104.03125 780.007813 98.8125 780.007813 C 97.601563 780.007813 96.445313 779.753906 95.378906 779.308594 C 91.859375 777.835938 89.363281 774.171875 89.363281 769.878906 M 183.09375 907.761719 L 207.226563 895.671875 C 210.070313 894.246094 210.5625 890.136719 208.144531 887.988281 L 197.3125 878.367188 C 195.421875 876.691406 192.761719 876.449219 190.636719 877.761719 L 170.660156 890.117188 C 169.226563 891.003906 167.601563 891.285156 166.058594 891.023438 C 164.492188 890.753906 163.007813 889.917969 161.898438 888.5625 L 152.210938 876.691406 C 151.503906 875.824219 151.03125 874.785156 150.777344 873.6875 C 150.597656 872.9375 150.503906 872.160156 150.558594 871.371094 C 150.761719 868.558594 152.445313 866.109375 154.894531 865.070313 L 173.621094 857.125 C 175.308594 856.410156 175.761719 854.078125 174.484375 852.699219 L 163.5625 840.921875 C 162.230469 839.488281 160.261719 838.980469 158.46875 839.605469 L 139.195313 846.332031 C 137.328125 846.984375 135.28125 846.425781 133.9375 844.894531 C 129.59375 839.941406 120.238281 828.96875 118.566406 824.488281 C 117.472656 821.554688 119.800781 818.765625 122.402344 816.710938 C 125.074219 814.601563 128.207031 813.269531 131.472656 812.632813 L 163.984375 806.296875 C 166.445313 805.816406 167.660156 802.875 166.410156 800.550781 C 158.796875 786.371094 148.925781 744.859375 147.054688 739.34375 C 145.613281 735.09375 128.285156 734.402344 116.597656 734.425781 C 109.917969 734.441406 103.300781 735.597656 96.964844 737.875 C 92.839844 739.359375 87.839844 740.894531 82.917969 742.4375 C 76.34375 744.496094 69.921875 746.5625 65.898438 748.519531 C 64.511719 749.195313 63.40625 749.855469 62.6875 750.5 C 60.90625 752.09375 59.566406 755.882813 59.183594 760.953125 C 58.472656 770.363281 60.097656 779.8125 63.621094 788.464844 L 73.941406 813.804688 C 75.425781 817.441406 78.777344 819.792969 82.480469 819.792969 L 91.8125 819.792969 C 92.578125 819.792969 93.300781 820.03125 93.921875 820.449219 C 94.558594 821.703125 95.210938 822.945313 95.859375 824.1875 C 95.992188 826.222656 95.089844 828.238281 93.398438 829.363281 L 89.496094 831.953125 C 87.386719 833.351563 86.714844 836.304688 87.984375 838.589844 L 100.761719 861.5625 C 101.851563 863.519531 104.144531 864.269531 106.070313 863.300781 L 113.941406 859.339844 C 114.933594 858.84375 116.054688 858.964844 116.925781 859.566406 C 117.371094 860.222656 117.824219 860.875 118.273438 861.527344 C 118.84375 863.421875 118.085938 865.5625 116.335938 866.496094 L 112.03125 868.804688 C 109.78125 870.011719 109.183594 873.15625 110.8125 875.214844 L 139.933594 911.984375 C 142.476563 915.816406 146.34375 918.007813 150.339844 919.980469 C 153.011719 921.300781 156.09375 921.285156 158.757813 919.949219 L 164.878906 916.882813 "/>
<path style=" stroke:none;fill-rule:nonzero;fill:rgb(2.398682%,2.398682%,34.498596%);fill-opacity:1;" d="M 570.972656 930.617188 C 564.386719 931.269531 557.554688 931.21875 550.59375 930.359375 C 545.207031 929.695313 540.414063 932.554688 540.265625 937.539063 C 540.097656 942.507813 545.359375 947.6875 551.625 948.246094 C 559.539063 948.988281 567.3125 948.847656 574.824219 947.914063 C 580.785156 947.160156 583.984375 942.304688 582.503906 937.683594 C 581.011719 933.046875 576.074219 930.132813 570.972656 930.617188 "/>
<path style=" stroke:none;fill-rule:nonzero;fill:rgb(2.398682%,2.398682%,34.498596%);fill-opacity:1;" d="M 613.5 914.71875 C 608.585938 918.230469 603.238281 921.273438 597.523438 923.75 C 593.117188 925.667969 590.472656 930.535156 592.191406 935.066406 C 593.898438 939.589844 599.988281 941.742188 605.1875 939.355469 C 611.746094 936.367188 617.902344 932.730469 623.585938 928.542969 C 628.101563 925.210938 628.679688 919.453125 625.558594 915.972656 C 622.421875 912.480469 617.304688 912.015625 613.5 914.71875 "/>
<path style=" stroke:none;fill-rule:nonzero;fill:rgb(2.398682%,2.398682%,34.498596%);fill-opacity:1;" d="M 323.214844 932.882813 C 328.617188 935.671875 333.753906 933.410156 334.8125 928.660156 C 335.878906 923.890625 333.171875 918.59375 328.621094 916.070313 C 322.734375 912.832031 316.996094 908.863281 311.550781 904.132813 C 307.335938 900.480469 301.863281 900.144531 299.238281 904.257813 C 296.613281 908.351563 298.457031 915.746094 303.46875 919.824219 C 309.777344 925 316.410156 929.347656 323.214844 932.882813 "/>
<path style=" stroke:none;fill-rule:nonzero;fill:rgb(2.398682%,2.398682%,34.498596%);fill-opacity:1;" d="M 353.121094 943.109375 C 360.15625 944.359375 367.171875 944.832031 374.0625 944.566406 C 379.539063 944.34375 382.910156 939.816406 382.019531 935.089844 C 381.113281 930.332031 377.035156 927.003906 372.46875 927.097656 C 366.5625 927.234375 360.527344 926.730469 354.464844 925.539063 C 349.785156 924.621094 345.121094 927.207031 344.304688 932.019531 C 343.480469 936.820313 347.546875 942.144531 353.121094 943.109375 "/>
<path style=" stroke:none;fill-rule:nonzero;fill:rgb(2.398682%,2.398682%,34.498596%);fill-opacity:1;" d="M 170.375 767.25 C 174.257813 765.679688 176.746094 761.324219 176.398438 757.050781 C 175.925781 751.539063 176.046875 745.773438 176.84375 739.847656 C 177.453125 735.257813 175.121094 731.414063 170.96875 731.617188 C 166.828125 731.808594 162.449219 736.589844 161.910156 741.914063 C 161.203125 748.640625 161.234375 755.1875 161.925781 761.457031 C 162.488281 766.433594 166.507813 768.808594 170.375 767.25 "/>
<path style=" stroke:none;fill-rule:nonzero;fill:rgb(2.398682%,2.398682%,34.498596%);fill-opacity:1;" d="M 177.539063 801.285156 C 180.269531 804.863281 185.066406 804.972656 188.003906 802.105469 C 190.953125 799.222656 191.398438 794.882813 189.1875 791.851563 C 186.308594 787.941406 183.832031 783.636719 181.828125 778.984375 C 180.277344 775.394531 176.25 773.492188 172.453125 775.246094 C 168.660156 776.988281 166.792969 782.273438 168.726563 786.492188 C 171.144531 791.820313 174.109375 796.773438 177.539063 801.285156 "/>
<path style=" stroke:none;fill-rule:nonzero;fill:rgb(2.398682%,2.398682%,34.498596%);fill-opacity:1;" d="M 874.09375 222.976563 C 874.09375 222.976563 836.1875 223.964844 834.339844 231.398438 C 832.492188 238.828125 847.28125 247.746094 847.28125 247.746094 L 854.136719 245.769531 C 854.136719 245.769531 871.320313 256.171875 867.621094 280.449219 C 867.621094 280.449219 845.433594 292.339844 841.273438 285.898438 C 840.496094 284.699219 839.222656 281.910156 837.601563 278.144531 C 837.574219 278.078125 837.542969 278.007813 837.511719 277.9375 C 830.410156 261.421875 816.78125 226.589844 808.914063 222.976563 C 808.914063 222.976563 812.613281 204.644531 866.234375 206.128906 C 866.234375 206.128906 867.621094 190.273438 856.988281 182.84375 C 856.988281 182.84375 819.554688 182.847656 789.074219 196.054688 C 783.167969 198.613281 777.519531 201.667969 772.457031 205.316406 C 769.796875 207.234375 767.292969 209.320313 765.003906 211.578125 C 765.003906 211.578125 815.851563 277.972656 806.605469 331.980469 C 806.605469 331.980469 817.628906 335.164063 836.371094 327.78125 C 841.308594 325.835938 846.785156 323.15625 852.738281 319.484375 C 863.992188 312.550781 876.945313 302.089844 891.195313 286.394531 C 891.195313 286.394531 897.207031 256.667969 874.09375 222.976563 "/>
<path style=" stroke:none;fill-rule:nonzero;fill:rgb(2.398682%,2.398682%,34.498596%);fill-opacity:1;" d="M 76.132813 241.929688 C 58.453125 227.808594 92.082031 211.457031 99.015625 207.738281 C 102.9375 205.640625 105.746094 209.003906 107.453125 212.324219 C 108.871094 215.09375 108.441406 218.53125 106.4375 220.851563 L 100.75 227.433594 L 62.917969 275.160156 C 55.179688 284.921875 50.222656 296.96875 49.246094 309.738281 C 47.847656 328.054688 54.511719 341.402344 62.644531 349.179688 C 66.941406 353.289063 71.644531 355.84375 75.785156 356.753906 C 76.898438 356.996094 78.070313 357.15625 79.28125 357.253906 C 86.839844 357.84375 96.050781 355.570313 103.109375 350.566406 C 110.457031 345.359375 114.097656 338.960938 118.429688 333.710938 C 124.460938 326.40625 134.726563 293.953125 133.683594 284.660156 C 132.644531 275.371094 125.015625 287.261719 125.015625 287.261719 C 125.015625 287.261719 115.308594 314.761719 107.335938 324.796875 C 99.363281 334.828125 90.90625 326.785156 90.90625 326.785156 C 90.90625 326.785156 89.550781 326.027344 88.164063 322.671875 C 86.707031 319.144531 85.214844 312.757813 85.214844 301.339844 C 85.214844 291.5 99.398438 274.140625 114.984375 257.859375 C 127.515625 244.769531 140.953125 232.375 148.660156 225.15625 C 152.035156 221.992188 151.476563 216.195313 147.5625 213.847656 C 146.496094 213.210938 145.386719 212.53125 144.242188 211.828125 C 139.445313 208.867188 134.03125 205.378906 128.496094 201.722656 C 115.292969 193.011719 101.394531 183.367188 93.464844 177.816406 C 89.347656 174.933594 84.027344 174.996094 79.972656 177.980469 C 70.542969 184.925781 53.023438 199.207031 37.304688 219.632813 C 14.421875 249.359375 60.53125 265.152344 60.53125 265.152344 "/>
<path style=" stroke:none;fill-rule:nonzero;fill:rgb(2.398682%,2.398682%,34.498596%);fill-opacity:1;" d="M 594.011719 22.941406 C 599.289063 25.230469 604.496094 28.269531 609.515625 32.101563 C 613.402344 35.058594 618.089844 34.550781 620.003906 30.078125 C 621.917969 25.640625 619.761719 18.621094 615.164063 15.371094 C 609.371094 11.230469 603.371094 7.960938 597.289063 5.519531 C 592.464844 3.601563 588.261719 6.621094 587.734375 11.46875 C 587.203125 16.339844 589.929688 21.148438 594.011719 22.941406 "/>
<path style=" stroke:none;fill-rule:nonzero;fill:rgb(2.398682%,2.398682%,34.498596%);fill-opacity:1;" d="M 555.746094 18.800781 C 560.769531 17.75 565.957031 17.320313 571.222656 17.570313 C 575.285156 17.75 579.058594 14.488281 579.375 9.609375 C 579.695313 4.75 575.804688 0.121094 570.976563 0.0195313 C 564.882813 -0.128906 558.859375 0.488281 553.003906 1.808594 C 548.351563 2.871094 545.832031 7.851563 546.96875 12.378906 C 548.117188 16.941406 551.855469 19.589844 555.746094 18.800781 "/>
<path style=" stroke:none;fill-rule:nonzero;fill:rgb(2.398682%,2.398682%,34.498596%);fill-opacity:1;" d="M 153.40625 200.179688 L 169.738281 210.835938 C 172.398438 214.179688 180.71875 212.074219 180.71875 212.074219 C 181.511719 201.46875 241.964844 161.429688 259.316406 150.144531 C 261.160156 148.945313 261.105469 146.046875 259.203125 144.953125 C 251.777344 140.675781 245.933594 133.429688 241.386719 125.421875 C 238.058594 119.554688 235.425781 113.28125 233.386719 107.453125 C 231.492188 102.035156 230.109375 97.003906 229.152344 93.066406 C 227.925781 88.003906 223.386719 84.761719 218.535156 85.308594 C 179.980469 89.65625 153.664063 117.289063 144.015625 129.144531 C 141.597656 132.113281 141.710938 136.558594 144.257813 139.398438 C 149.886719 145.667969 159.460938 156.160156 163.5 159.554688 C 163.761719 159.777344 164.007813 159.984375 164.253906 160.195313 C 169.597656 164.707031 172.011719 166.734375 178.636719 161.289063 C 185.570313 155.59375 181.875 149.523438 181.875 149.523438 C 179.496094 149.644531 177.8125 149.222656 176.625 148.476563 C 171.746094 145.410156 175.402344 136.765625 175.402344 136.765625 C 175.402344 136.765625 189.039063 127.351563 195.972656 123.757813 C 199.640625 121.859375 204.597656 122.320313 208.457031 123.171875 C 211.890625 123.929688 214.460938 124.996094 214.460938 124.996094 L 226.023438 134.75 L 228.5625 136.886719 C 228.5625 136.886719 232.835938 137.632813 227.753906 145.4375 C 222.667969 153.238281 213.652344 149.277344 213.652344 149.277344 C 212.957031 147.574219 212.253906 146.097656 211.546875 144.777344 C 202.738281 128.3125 193.429688 139.863281 193.429688 139.863281 C 185.457031 145.3125 193.660156 150.140625 193.660156 150.140625 L 200.59375 151.132813 C 200.59375 151.132813 200.867188 151.785156 201.195313 152.742188 C 201.894531 154.765625 202.84375 158.164063 201.980469 159.679688 C 200.710938 161.910156 172.28125 184.699219 172.28125 184.699219 C 171.015625 184.972656 169.421875 184.679688 167.605469 183.984375 C 163.296875 182.335938 157.675781 178.285156 151.777344 173.269531 C 136.347656 160.136719 119.121094 140.480469 119.121094 140.480469 C 97.28125 130.324219 94.96875 162.035156 94.96875 162.035156 L 137.601563 189.859375 "/>
<path style=" stroke:none;fill-rule:nonzero;fill:rgb(2.398682%,2.398682%,34.498596%);fill-opacity:1;" d="M 539.21875 45.214844 C 544.4375 45.214844 548.667969 49.746094 548.667969 55.34375 C 548.667969 60.9375 544.4375 65.472656 539.21875 65.472656 C 534 65.472656 529.769531 60.9375 529.769531 55.34375 C 529.769531 49.746094 534 45.214844 539.21875 45.214844 M 769.382813 160.894531 C 774.222656 160.894531 778.148438 165.101563 778.148438 170.289063 C 778.148438 173.597656 776.554688 176.496094 774.144531 178.171875 C 772.773438 179.125 771.140625 179.6875 769.382813 179.6875 C 764.542969 179.6875 760.617188 175.480469 760.617188 170.289063 C 760.617188 168.425781 761.132813 166.691406 762.007813 165.230469 C 763.566406 162.625 766.28125 160.894531 769.382813 160.894531 M 506.320313 90.8125 C 507.394531 93.582031 509.875 95.46875 512.71875 95.550781 C 535.933594 96.242188 637.675781 105.011719 753.5625 202.164063 C 753.5625 202.164063 757.398438 199.429688 764.238281 195.519531 C 768.75 192.9375 774.566406 189.851563 781.480469 186.6875 C 796.882813 179.640625 817.660156 172.257813 841.273438 169.464844 L 803.136719 134.535156 C 803.136719 134.535156 788.925781 114.839844 746.628906 136.394531 L 736.898438 142.246094 L 726.867188 148.285156 C 726.867188 148.285156 700.171875 126.730469 682.144531 121.527344 C 682.144531 121.527344 679.097656 112.109375 686.925781 108.34375 C 689.984375 106.871094 694.699219 106.261719 701.90625 107.40625 C 727.558594 111.496094 716.464844 123.015625 716.464844 123.015625 C 716.464844 123.015625 720.429688 128.789063 724.386719 132.414063 C 725.34375 133.289063 726.300781 134.042969 727.203125 134.554688 C 728.085938 135.0625 728.917969 135.339844 729.640625 135.277344 C 734.148438 134.90625 753.90625 122.644531 753.90625 122.644531 C 753.90625 122.644531 713.691406 71.363281 655.449219 64.675781 C 623.988281 61.0625 612.0625 69.699219 607.734375 78.40625 C 605.898438 82.109375 605.421875 85.820313 605.417969 88.613281 C 605.414063 91.070313 603.371094 92.953125 601.097656 92.648438 L 600.476563 92.5625 C 596.066406 91.972656 592.367188 88.566406 591.34375 83.933594 C 590.769531 81.328125 590.683594 78.328125 591.800781 75.351563 C 592.40625 73.746094 593.351563 72.148438 594.78125 70.621094 C 602.554688 62.285156 617.019531 50.964844 619.921875 48.71875 C 620.265625 48.453125 620.554688 48.125 620.78125 47.738281 C 621.894531 45.863281 621.175781 43.371094 619.265625 42.496094 C 607.554688 37.121094 568.5625 21.519531 522.386719 27.789063 C 520.15625 28.089844 518.113281 29.289063 516.625 31.101563 C 512.050781 36.660156 503.007813 50.265625 503.203125 70.625 C 503.261719 76.546875 504.089844 83.035156 506.050781 90.066406 C 506.121094 90.324219 506.222656 90.566406 506.320313 90.8125 "/>
<path style=" stroke:none;fill-rule:nonzero;fill:rgb(2.398682%,2.398682%,34.498596%);fill-opacity:1;" d="M 786.679688 302.386719 C 790.164063 299.503906 791.023438 294.78125 788.851563 291.238281 C 786.023438 286.664063 783.664063 281.691406 781.863281 276.386719 C 780.464844 272.292969 776.199219 269.804688 771.878906 271.363281 C 767.5625 272.910156 765.066406 278.53125 766.832031 283.351563 C 769.035156 289.445313 771.871094 295.171875 775.253906 300.464844 C 777.953125 304.660156 783.210938 305.246094 786.679688 302.386719 "/>
<path style=" stroke:none;fill-rule:nonzero;fill:rgb(2.398682%,2.398682%,34.498596%);fill-opacity:1;" d="M 160.765625 234.121094 C 157.003906 231.664063 152.585938 232.496094 150.277344 235.941406 C 147.304688 240.40625 143.816406 244.546875 139.84375 248.253906 C 136.777344 251.121094 136.140625 256.277344 139.042969 260.042969 C 141.933594 263.808594 147.726563 264.292969 151.292969 260.800781 C 155.8125 256.410156 159.785156 251.523438 163.179688 246.242188 C 165.871094 242.039063 164.496094 236.566406 160.765625 234.121094 "/>
<path style=" stroke:none;fill-rule:nonzero;fill:rgb(2.398682%,2.398682%,34.498596%);fill-opacity:1;" d="M 318.253906 50.300781 C 323.46875 50.300781 327.703125 54.835938 327.703125 60.433594 C 327.703125 66.027344 323.46875 70.5625 318.253906 70.5625 C 313.03125 70.5625 308.800781 66.027344 308.800781 60.433594 C 308.800781 54.835938 313.03125 50.300781 318.253906 50.300781 M 468.238281 91.058594 C 473.628906 101.304688 484.394531 97.0625 490.238281 93.699219 C 491.535156 92.949219 492.585938 91.851563 493.320313 90.546875 C 493.988281 89.359375 494.402344 88.007813 494.476563 86.578125 L 495.332031 70.464844 L 496.320313 51.890625 C 496.527344 47.964844 494.105469 44.394531 490.539063 43.46875 C 465.140625 36.878906 467.542969 54.269531 467.542969 54.269531 L 468.179688 69.910156 L 468.238281 71.363281 C 465.417969 77.40625 461.882813 77.210938 459.089844 75.558594 C 456.929688 74.28125 455.40625 72.117188 454.71875 69.636719 C 454.464844 68.722656 454.316406 67.773438 454.300781 66.804688 L 454.09375 54.75 C 454.042969 51.730469 452.839844 48.828125 450.695313 46.863281 C 441.152344 38.089844 432.683594 45.4375 428.972656 49.777344 C 427.691406 51.277344 426.980469 53.234375 426.980469 55.265625 L 426.980469 69.503906 C 426.980469 81.394531 413.460938 75.449219 413.460938 75.449219 L 413.578125 68.796875 L 413.757813 58.460938 C 413.792969 56.5 413.292969 54.546875 412.25 52.933594 C 406.53125 44.0625 399.554688 48.46875 395.554688 52.371094 C 393.5 54.378906 392.449219 57.304688 392.675781 60.273438 C 392.84375 62.488281 393.019531 65.371094 393.097656 68.378906 C 393.238281 73.726563 393.070313 79.464844 391.964844 82.511719 C 389.539063 89.199219 378.097656 81.023438 378.097656 81.023438 C 378.097656 81.023438 372.988281 75.984375 370.265625 68.34375 C 368.675781 63.882813 367.898438 58.535156 369.433594 52.78125 C 373.589844 37.179688 363.191406 40.890625 355.910156 37.921875 C 351.519531 36.128906 333.890625 36.039063 315.128906 40.027344 C 302.785156 42.648438 290.230469 47.988281 279.640625 52.410156 C 258.398438 61.28125 271.175781 76.503906 280.429688 85.722656 C 282.808594 88.089844 284.949219 90.0625 286.226563 91.429688 C 292.46875 98.117188 303.558594 94.03125 313.613281 94.171875 C 316.089844 94.207031 317.34375 94.691406 317.832031 95.398438 C 319.320313 97.5625 313.613281 101.835938 313.613281 101.835938 L 276.292969 108.550781 L 266.117188 110.382813 C 248.804688 106.539063 250.511719 117.019531 251.320313 120.011719 C 251.449219 120.492188 251.558594 120.785156 251.558594 120.785156 C 251.558594 120.785156 256.410156 127.101563 264.386719 136.765625 C 272.359375 146.425781 278.253906 141.96875 278.253906 141.96875 C 292.121094 128.960938 336.84375 118.183594 353.832031 112.238281 C 370.816406 106.292969 367.351563 97.746094 367.351563 97.746094 C 367.351563 97.746094 369.085938 91.429688 370.125 96.261719 C 371.164063 101.089844 376.363281 100.347656 376.363281 100.347656 C 386.070313 98.117188 412.765625 100.347656 412.765625 100.347656 C 423.078125 99.558594 424.871094 95.039063 425.039063 92.472656 C 425.113281 91.304688 425.421875 90.171875 425.945313 89.171875 L 432.394531 89.300781 C 432.4375 89.394531 432.484375 89.472656 432.527344 89.570313 C 437.097656 99.4375 450.324219 95.285156 456.570313 92.632813 C 457.875 92.078125 459.019531 91.117188 459.742188 89.859375 L 467.128906 90.011719 C 467.796875 90.601563 468.238281 91.058594 468.238281 91.058594 "/>
</g>
</svg>
