<?xml version="1.0" encoding="UTF-8"?>
<svg xmlns="http://www.w3.org/2000/svg" xmlns:xlink="http://www.w3.org/1999/xlink" width="860.61pt" height="1000.94pt" viewBox="0 0 860.61 1000.94" version="1.1">
<defs>
<clipPath id="clip1">
  <path d="M 308 278 L 860.609375 278 L 860.609375 543 L 308 543 Z M 308 278 "/>
</clipPath>
<clipPath id="clip2">
  <path d="M 96 917 L 258 917 L 258 1000.941406 L 96 1000.941406 Z M 96 917 "/>
</clipPath>
</defs>
<g id="surface1">
<path style=" stroke:none;fill-rule:nonzero;fill:rgb(57.998657%,1.599121%,1.599121%);fill-opacity:1;" d="M 535.902344 737.855469 C 355.109375 737.855469 208.550781 591.296875 208.550781 410.507813 C 208.550781 229.71875 355.109375 83.160156 535.902344 83.160156 C 603.210938 83.160156 665.773438 103.480469 717.796875 138.3125 C 642.589844 53.476563 532.792969 0 410.503906 0 C 183.789063 0 0 183.792969 0 410.507813 C 0 637.222656 183.789063 821.011719 410.503906 821.011719 C 532.792969 821.011719 642.589844 767.539063 717.796875 682.703125 C 665.773438 717.535156 603.210938 737.855469 535.902344 737.855469 "/>
<path style=" stroke:none;fill-rule:nonzero;fill:rgb(100%,100%,100%);fill-opacity:1;" d="M 464.167969 489.820313 C 516.152344 472.394531 557.546875 458.523438 582.324219 503.890625 L 582.324219 310.460938 C 558.226563 271.441406 522.191406 282.730469 478.683594 296.375 C 447.78125 306.0625 413.21875 316.898438 376.140625 312.394531 L 341.871094 511.925781 C 386.285156 515.929688 427.875 501.988281 464.167969 489.820313 "/>
<path style=" stroke:none;fill-rule:nonzero;fill:rgb(100%,100%,100%);fill-opacity:1;" d="M 705.121094 489.820313 C 741.414063 501.988281 783.007813 515.929688 827.421875 511.925781 L 793.148438 312.394531 C 756.070313 316.898438 721.507813 306.0625 690.605469 296.375 C 647.097656 282.730469 611.0625 271.441406 586.964844 310.460938 L 586.964844 503.890625 C 611.746094 458.523438 653.136719 472.394531 705.121094 489.820313 "/>
<path style=" stroke:none;fill-rule:evenodd;fill:rgb(100%,100%,100%);fill-opacity:1;" d="M 803.148438 311.738281 L 364.285156 315.859375 L 323.097656 519.742188 C 323.097656 519.742188 323.097656 527.980469 329.277344 527.980469 L 551.25 527.980469 C 561.90625 527.980469 573.898438 537.621094 584.644531 537.621094 C 595.359375 537.621094 604.824219 527.980469 615.476563 527.980469 L 843.683594 527.980469 "/>
<g clip-path="url(#clip1)" clip-rule="nonzero">
<path style=" stroke:none;fill-rule:evenodd;fill:rgb(26.699829%,5.899048%,1.199341%);fill-opacity:1;" d="M 341.871094 511.925781 C 386.285156 515.929688 427.878906 501.988281 464.167969 489.820313 C 516.152344 472.394531 557.546875 458.523438 582.324219 503.890625 L 582.324219 310.460938 C 558.226563 271.441406 522.191406 282.730469 478.683594 296.375 C 447.785156 306.0625 413.21875 316.898438 376.144531 312.398438 Z M 827.421875 511.925781 C 783.007813 515.929688 741.414063 501.988281 705.121094 489.820313 C 653.136719 472.394531 611.746094 458.523438 586.964844 503.890625 L 586.964844 310.460938 C 611.0625 271.441406 647.097656 282.730469 690.605469 296.375 C 721.507813 306.0625 756.070313 316.898438 793.148438 312.398438 Z M 582.175781 514.09375 C 559.679688 462.667969 518.328125 476.53125 465.632813 494.195313 C 428.277344 506.71875 385.371094 521.105469 339.117188 516.300781 C 339.007813 516.296875 338.894531 516.285156 338.777344 516.265625 C 337.519531 516.050781 336.671875 514.855469 336.890625 513.59375 L 336.894531 513.59375 L 371.101563 314.441406 L 367.472656 316.652344 C 354.992188 383.28125 342.511719 449.925781 330.035156 516.558594 C 329.347656 520.078125 330.753906 521.515625 334.0625 521.363281 L 547.402344 521.363281 C 551.136719 534.113281 618.230469 533.851563 621.886719 521.363281 L 835.226563 521.363281 C 838.535156 521.515625 839.941406 520.078125 839.257813 516.558594 C 826.777344 449.925781 814.296875 383.28125 801.816406 316.652344 L 798.1875 314.441406 L 832.394531 513.59375 L 832.398438 513.59375 C 832.617188 514.855469 831.769531 516.050781 830.511719 516.265625 C 830.398438 516.285156 830.285156 516.296875 830.171875 516.300781 C 783.921875 521.105469 741.015625 506.71875 703.65625 494.195313 C 650.992188 476.542969 609.65625 462.683594 587.152344 514.007813 C 586.066406 516.476563 583.394531 516.882813 582.175781 514.09375 M 311.023438 531.066406 C 310.859375 531.066406 310.695313 531.050781 310.53125 531.015625 C 309.277344 530.757813 308.472656 529.53125 308.730469 528.28125 L 308.738281 528.28125 L 350.1875 326.960938 C 350.324219 325.839844 351.269531 324.964844 352.433594 324.933594 L 361.261719 324.714844 L 363.070313 315.027344 C 363.226563 314.203125 363.519531 313.574219 364.328125 313.15625 L 372.898438 307.933594 C 373.425781 307.5625 374.078125 307.425781 374.707031 307.558594 C 411.539063 312.582031 446.296875 301.683594 477.308594 291.964844 C 521.765625 278.023438 558.742188 266.4375 584.644531 305.535156 C 610.546875 266.4375 647.523438 278.023438 691.980469 291.964844 C 722.992188 301.683594 757.746094 312.582031 794.582031 307.558594 C 795.210938 307.425781 795.863281 307.5625 796.390625 307.933594 L 804.960938 313.15625 C 805.769531 313.574219 806.0625 314.203125 806.21875 315.027344 L 808.027344 324.714844 L 816.855469 324.933594 C 818.019531 324.964844 818.964844 325.839844 819.101563 326.960938 L 860.554688 528.28125 L 860.5625 528.28125 C 860.816406 529.53125 860.011719 530.757813 858.761719 531.015625 C 858.59375 531.050781 858.429688 531.066406 858.265625 531.066406 L 621.96875 531.066406 C 618.464844 546.820313 551.027344 544.875 547.320313 531.066406 "/>
</g>
<path style=" stroke:none;fill-rule:nonzero;fill:rgb(32.499695%,7.099915%,14.099121%);fill-opacity:1;" d="M 588.363281 535.1875 C 587.058594 534.53125 585.632813 533.855469 584.007813 533.117188 C 582.722656 532.535156 581.414063 531.957031 580.121094 531.390625 L 580.433594 562.265625 C 581.296875 563.367188 582.171875 564.464844 583.027344 565.53125 L 583.429688 566.039063 C 584.230469 567.035156 585.058594 568.058594 585.839844 569.019531 L 586.007813 569.21875 C 586.914063 570.332031 587.835938 571.460938 588.753906 572.609375 L 589.125 535.570313 C 588.894531 535.453125 588.679688 535.347656 588.488281 535.25 "/>
<path style="fill:none;stroke-width:21.75;stroke-linecap:butt;stroke-linejoin:miter;stroke:rgb(0%,0%,0%);stroke-opacity:1;stroke-miterlimit:10;" d="M 5883.632813 4657.525 C 5870.585938 4664.0875 5856.328125 4670.845312 5840.078125 4678.228125 C 5827.226563 4684.048437 5814.140625 4689.829687 5801.210938 4695.49375 L 5804.335938 4386.74375 C 5812.96875 4375.728125 5821.71875 4364.751562 5830.273438 4354.0875 L 5834.296875 4349.009375 C 5842.304688 4339.048437 5850.585938 4328.814062 5858.398438 4319.204687 L 5860.078125 4317.2125 C 5869.140625 4306.079687 5878.359375 4294.790625 5887.539063 4283.30625 L 5891.25 4653.696875 C 5888.945313 4654.86875 5886.796875 4655.923437 5884.882813 4656.9 Z M 5883.632813 4657.525 " transform="matrix(0.1,0,0,-0.1,0,1000.94)"/>
<path style=" stroke:none;fill-rule:nonzero;fill:rgb(70.599365%,75.299072%,21.598816%);fill-opacity:1;" d="M 604.414063 523.0625 C 600.179688 519.613281 595.171875 516.839844 590.390625 514.359375 L 590.304688 514.316406 C 590.269531 514.296875 590.234375 514.28125 590.199219 514.261719 L 590.1875 514.257813 C 589.019531 513.652344 587.8125 513.039063 586.648438 512.449219 C 585.761719 511.996094 584.84375 511.53125 583.9375 511.070313 C 582.167969 510.160156 579.839844 508.945313 577.550781 507.617188 C 571.371094 504.039063 563.753906 498.78125 559.652344 489.808594 C 558.339844 486.933594 557.605469 484.039063 557.480469 481.210938 C 557.359375 478.53125 557.777344 475.890625 558.726563 473.363281 C 559.980469 470.019531 562.128906 466.910156 565.113281 464.128906 C 567.875 461.550781 571.226563 459.359375 575.078125 457.617188 C 575.476563 457.4375 575.878906 457.261719 576.285156 457.085938 L 576.261719 455.023438 C 572.25 454.085938 568.132813 453.285156 564.140625 452.511719 C 560.492188 451.804688 556.71875 451.070313 553.054688 450.238281 C 552.304688 450.066406 551.648438 449.914063 551.039063 449.769531 C 548.03125 452.648438 545.480469 455.867188 543.449219 459.347656 C 538.355469 468.070313 536.839844 478.3125 539.175781 488.1875 C 540.5625 494.074219 545.390625 504.027344 550.085938 508.898438 C 553.914063 512.871094 557.449219 515.914063 560.894531 518.195313 C 562.078125 518.980469 563.351563 519.765625 564.671875 520.53125 C 567.554688 522.195313 570.828125 523.851563 574.976563 525.742188 C 576.398438 526.390625 577.835938 527.023438 579.171875 527.609375 L 580.171875 528.042969 C 581.847656 528.777344 583.585938 529.53125 585.285156 530.304688 C 586.945313 531.058594 588.40625 531.753906 589.746094 532.425781 L 589.871094 532.488281 C 590.289063 532.699219 590.8125 532.960938 591.386719 533.257813 C 595.84375 535.5625 598.390625 537.433594 599.40625 539.136719 C 601.691406 542.972656 601.597656 547.136719 599.117188 552.234375 C 597.078125 556.429688 594.371094 560.183594 591.933594 563.339844 L 591.800781 576.539063 C 592.042969 576.863281 592.28125 577.183594 592.511719 577.5 C 592.839844 577.195313 593.164063 576.898438 593.484375 576.601563 C 595.382813 574.851563 597.179688 573.195313 598.664063 571.679688 C 607.355469 562.789063 616.480469 552.242188 614.636719 539.585938 C 613.726563 533.332031 610.382813 527.925781 604.414063 523.0625 "/>
<path style="fill:none;stroke-width:21.75;stroke-linecap:butt;stroke-linejoin:miter;stroke:rgb(0%,0%,0%);stroke-opacity:1;stroke-miterlimit:10;" d="M 6044.140625 4778.775 C 6001.796875 4813.267187 5951.71875 4841.001562 5903.90625 4865.80625 L 5903.046875 4866.235937 C 5902.695313 4866.43125 5902.34375 4866.5875 5901.992188 4866.782812 L 5901.875 4866.821875 C 5890.195313 4872.876562 5878.125 4879.009375 5866.484375 4884.907812 C 5857.617188 4889.439062 5848.4375 4894.0875 5839.375 4898.696875 C 5821.679688 4907.798437 5798.398438 4919.946875 5775.507813 4933.228125 C 5713.710938 4969.009375 5637.539063 5021.5875 5596.523438 5111.314062 C 5583.398438 5140.064062 5576.054688 5169.009375 5574.804688 5197.290625 C 5573.59375 5224.0875 5577.773438 5250.49375 5587.265625 5275.767187 C 5599.804688 5309.204687 5621.289063 5340.298437 5651.132813 5368.110937 C 5678.75 5393.892187 5712.265625 5415.80625 5750.78125 5433.228125 C 5754.765625 5435.025 5758.789063 5436.782812 5762.851563 5438.540625 L 5762.617188 5459.165625 C 5722.5 5468.540625 5681.328125 5476.548437 5641.40625 5484.282812 C 5604.921875 5491.353125 5567.1875 5498.696875 5530.546875 5507.017187 C 5523.046875 5508.735937 5516.484375 5510.259375 5510.390625 5511.704687 C 5480.3125 5482.915625 5454.804688 5450.728125 5434.492188 5415.923437 C 5383.554688 5328.696875 5368.398438 5226.275 5391.757813 5127.525 C 5405.625 5068.657812 5453.90625 4969.126562 5500.859375 4920.415625 C 5539.140625 4880.689062 5574.492188 4850.259375 5608.945313 4827.446875 C 5620.78125 4819.595312 5633.515625 4811.74375 5646.71875 4804.0875 C 5675.546875 4787.446875 5708.28125 4770.884375 5749.765625 4751.978125 C 5763.984375 4745.49375 5778.359375 4739.165625 5791.71875 4733.30625 L 5801.71875 4728.970312 C 5818.476563 4721.626562 5835.859375 4714.0875 5852.851563 4706.353125 C 5869.453125 4698.814062 5884.0625 4691.860937 5897.460938 4685.142187 L 5898.710938 4684.517187 C 5902.890625 4682.407812 5908.125 4679.790625 5913.867188 4676.821875 C 5958.4375 4653.775 5983.90625 4635.064062 5994.0625 4618.032812 C 6016.914063 4579.673437 6015.976563 4538.032812 5991.171875 4487.05625 C 5970.78125 4445.103125 5943.710938 4407.564062 5919.335938 4376.001562 L 5918.007813 4244.009375 C 5920.429688 4240.767187 5922.8125 4237.564062 5925.117188 4234.4 C 5928.398438 4237.446875 5931.640625 4240.415625 5934.84375 4243.384375 C 5953.828125 4260.884375 5971.796875 4277.446875 5986.640625 4292.603125 C 6073.554688 4381.509375 6164.804688 4486.978125 6146.367188 4613.540625 C 6137.265625 4676.079687 6103.828125 4730.142187 6044.140625 4778.775 Z M 6044.140625 4778.775 " transform="matrix(0.1,0,0,-0.1,0,1000.94)"/>
<path style=" stroke:none;fill-rule:nonzero;fill:rgb(92.89856%,4.299927%,8.198547%);fill-opacity:1;" d="M 589.019531 577.980469 C 587.265625 575.65625 585.410156 573.375 583.613281 571.171875 L 583.449219 570.96875 C 582.660156 570.003906 581.824219 568.976563 581.019531 567.964844 L 580.613281 567.460938 C 579.648438 566.253906 578.652344 565.007813 577.675781 563.75 C 575.160156 560.511719 572.300781 556.613281 570.171875 552.234375 C 567.691406 547.136719 567.601563 542.972656 569.886719 539.136719 C 570.832031 537.542969 573.121094 535.804688 577.058594 533.703125 L 577.019531 530.035156 C 575.941406 529.5625 574.816406 529.0625 573.695313 528.550781 C 569.898438 526.820313 566.808594 525.273438 564.070313 523.738281 C 558.605469 528.425781 555.519531 533.617188 554.652344 539.585938 C 552.808594 552.242188 561.933594 562.789063 570.628906 571.679688 C 572.109375 573.195313 573.90625 574.851563 575.804688 576.601563 C 576.539063 577.28125 577.300781 577.980469 578.066406 578.695313 C 578.839844 579.414063 579.523438 580.0625 580.160156 580.671875 C 582.449219 582.875 584.246094 584.746094 585.816406 586.566406 C 588.324219 589.476563 590.167969 592.171875 591.453125 594.808594 C 593.222656 598.4375 593.914063 602.007813 593.503906 605.417969 C 593.234375 607.691406 592.539063 609.851563 591.441406 611.839844 L 591.386719 617.257813 C 595.738281 613.285156 600.585938 606.535156 598.6875 597.039063 C 597.660156 591.886719 595.21875 586.699219 591.015625 580.710938 C 590.390625 579.824219 589.738281 578.929688 589.019531 577.980469 "/>
<path style="fill:none;stroke-width:21.75;stroke-linecap:butt;stroke-linejoin:miter;stroke:rgb(0%,0%,0%);stroke-opacity:1;stroke-miterlimit:10;" d="M 5890.195313 4229.595312 C 5872.65625 4252.8375 5854.101563 4275.65 5836.132813 4297.68125 L 5834.492188 4299.7125 C 5826.601563 4309.360937 5818.242188 4319.634375 5810.195313 4329.751562 L 5806.132813 4334.790625 C 5796.484375 4346.860937 5786.523438 4359.321875 5776.757813 4371.9 C 5751.601563 4404.282812 5723.007813 4443.267187 5701.71875 4487.05625 C 5676.914063 4538.032812 5676.015625 4579.673437 5698.867188 4618.032812 C 5708.320313 4633.970312 5731.210938 4651.353125 5770.585938 4672.36875 L 5770.195313 4709.048437 C 5759.414063 4713.775 5748.164063 4718.775 5736.953125 4723.892187 C 5698.984375 4741.196875 5668.085938 4756.665625 5640.703125 4772.017187 C 5586.054688 4725.142187 5555.195313 4673.228125 5546.523438 4613.540625 C 5528.085938 4486.978125 5619.335938 4381.509375 5706.289063 4292.603125 C 5721.09375 4277.446875 5739.0625 4260.884375 5758.046875 4243.384375 C 5765.390625 4236.5875 5773.007813 4229.595312 5780.664063 4222.446875 C 5788.398438 4215.259375 5795.234375 4208.775 5801.601563 4202.68125 C 5824.492188 4180.65 5842.460938 4161.939062 5858.164063 4143.735937 C 5883.242188 4114.634375 5901.679688 4087.68125 5914.53125 4061.314062 C 5932.226563 4025.025 5939.140625 3989.321875 5935.039063 3955.220312 C 5932.34375 3932.485937 5925.390625 3910.884375 5914.414063 3891.001562 L 5913.867188 3836.821875 C 5957.382813 3876.548437 6005.859375 3944.048437 5986.875 4039.009375 C 5976.601563 4090.532812 5952.1875 4142.407812 5910.15625 4202.290625 C 5903.90625 4211.157812 5897.382813 4220.103125 5890.195313 4229.595312 Z M 5890.195313 4229.595312 " transform="matrix(0.1,0,0,-0.1,0,1000.94)"/>
<path style=" stroke:none;fill-rule:nonzero;fill:rgb(70.599365%,75.299072%,21.598816%);fill-opacity:1;" d="M 588.746094 622.050781 C 586.753906 620.835938 585.09375 619.683594 583.671875 618.53125 C 581.203125 616.53125 579.363281 614.460938 578.050781 612.203125 C 576.835938 610.113281 576.074219 607.832031 575.785156 605.421875 C 575.390625 602.113281 576.027344 598.65625 577.679688 595.140625 L 577.550781 582.449219 C 577.457031 582.363281 577.363281 582.273438 577.269531 582.183594 C 573.675781 587.558594 571.546875 592.316406 570.601563 597.039063 C 568.324219 608.433594 575.761719 615.882813 580.394531 619.304688 C 580.476563 619.363281 580.558594 619.421875 580.640625 619.480469 C 581.597656 620.175781 582.617188 620.839844 583.675781 621.453125 C 584.214844 621.765625 584.777344 622.070313 585.351563 622.367188 C 586.851563 623.136719 588.46875 623.84375 590.296875 624.527344 C 590.765625 624.699219 591.234375 624.871094 591.6875 625.027344 C 592.570313 625.335938 593.476563 625.640625 594.351563 625.933594 C 595.449219 626.304688 596.574219 626.679688 597.691406 627.078125 C 596.675781 626.503906 595.617188 625.925781 594.53125 625.332031 C 592.714844 624.339844 590.832031 623.3125 589.007813 622.210938 C 588.925781 622.160156 588.835938 622.105469 588.746094 622.050781 "/>
<path style="fill:none;stroke-width:21.75;stroke-linecap:butt;stroke-linejoin:miter;stroke:rgb(0%,0%,0%);stroke-opacity:1;stroke-miterlimit:10;" d="M 5887.460938 3788.892187 C 5867.539063 3801.040625 5850.9375 3812.564062 5836.71875 3824.0875 C 5812.03125 3844.0875 5793.632813 3864.790625 5780.507813 3887.36875 C 5768.359375 3908.267187 5760.742188 3931.079687 5757.851563 3955.18125 C 5753.90625 3988.267187 5760.273438 4022.8375 5776.796875 4057.99375 L 5775.507813 4184.907812 C 5774.570313 4185.767187 5773.632813 4186.665625 5772.695313 4187.564062 C 5736.757813 4133.814062 5715.46875 4086.235937 5706.015625 4039.009375 C 5683.242188 3925.064062 5757.617188 3850.571875 5803.945313 3816.353125 C 5804.765625 3815.767187 5805.585938 3815.18125 5806.40625 3814.595312 C 5815.976563 3807.642187 5826.171875 3801.001562 5836.757813 3794.86875 C 5842.148438 3791.74375 5847.773438 3788.696875 5853.515625 3785.728125 C 5868.515625 3778.032812 5884.6875 3770.9625 5902.96875 3764.126562 C 5907.65625 3762.407812 5912.34375 3760.689062 5916.875 3759.126562 C 5925.703125 3756.040625 5934.765625 3752.99375 5943.515625 3750.064062 C 5954.492188 3746.353125 5965.742188 3742.603125 5976.914063 3738.61875 C 5966.757813 3744.360937 5956.171875 3750.142187 5945.3125 3756.079687 C 5927.148438 3766.001562 5908.320313 3776.275 5890.078125 3787.290625 C 5889.257813 3787.798437 5888.359375 3788.345312 5887.460938 3788.892187 Z M 5887.460938 3788.892187 " transform="matrix(0.1,0,0,-0.1,0,1000.94)"/>
<path style=" stroke:none;fill-rule:nonzero;fill:rgb(32.499695%,7.099915%,14.099121%);fill-opacity:1;" d="M 580.671875 585.53125 L 580.925781 610.992188 C 582.035156 612.792969 583.574219 614.476563 585.617188 616.132813 C 586.414063 616.777344 587.300781 617.429688 588.289063 618.09375 L 588.515625 595.84375 C 587.355469 593.546875 585.703125 591.171875 583.476563 588.585938 C 582.628906 587.601563 581.707031 586.597656 580.671875 585.53125 "/>
<path style="fill:none;stroke-width:21.75;stroke-linecap:butt;stroke-linejoin:miter;stroke:rgb(0%,0%,0%);stroke-opacity:1;stroke-miterlimit:10;" d="M 5806.71875 4154.0875 L 5809.257813 3899.478125 C 5820.351563 3881.470312 5835.742188 3864.634375 5856.171875 3848.071875 C 5864.140625 3841.626562 5873.007813 3835.103125 5882.890625 3828.4625 L 5885.15625 4050.9625 C 5873.554688 4073.93125 5857.03125 4097.68125 5834.765625 4123.540625 C 5826.289063 4133.384375 5817.070313 4143.423437 5806.71875 4154.0875 Z M 5806.71875 4154.0875 " transform="matrix(0.1,0,0,-0.1,0,1000.94)"/>
<path style=" stroke:none;fill-rule:nonzero;fill:rgb(92.89856%,4.299927%,8.198547%);fill-opacity:1;" d="M 574.757813 625.332031 C 573.671875 625.925781 572.613281 626.503906 571.597656 627.078125 C 572.714844 626.683594 573.839844 626.304688 574.9375 625.933594 C 575.8125 625.640625 576.71875 625.335938 577.601563 625.027344 C 577.660156 625.007813 577.726563 624.984375 577.785156 624.964844 L 577.773438 623.664063 C 576.765625 624.234375 575.753906 624.789063 574.757813 625.332031 "/>
<path style="fill:none;stroke-width:21.75;stroke-linecap:butt;stroke-linejoin:miter;stroke:rgb(0%,0%,0%);stroke-opacity:1;stroke-miterlimit:10;" d="M 5747.578125 3756.079687 C 5736.71875 3750.142187 5726.132813 3744.360937 5715.976563 3738.61875 C 5727.148438 3742.564062 5738.398438 3746.353125 5749.375 3750.064062 C 5758.125 3752.99375 5767.1875 3756.040625 5776.015625 3759.126562 C 5776.601563 3759.321875 5777.265625 3759.55625 5777.851563 3759.751562 L 5777.734375 3772.759375 C 5767.65625 3767.05625 5757.539063 3761.509375 5747.578125 3756.079687 Z M 5747.578125 3756.079687 " transform="matrix(0.1,0,0,-0.1,0,1000.94)"/>
<path style=" stroke:none;fill-rule:nonzero;fill:rgb(32.499695%,7.099915%,14.099121%);fill-opacity:1;" d="M 583.941406 625.113281 C 583.320313 624.796875 582.710938 624.464844 582.128906 624.125 C 581.832031 623.953125 581.539063 623.777344 581.25 623.597656 L 581.273438 625.953125 L 581.417969 640.394531 L 587.871094 640.394531 L 588.007813 626.949219 C 586.546875 626.367188 585.207031 625.761719 583.941406 625.113281 "/>
<path style="fill:none;stroke-width:21.75;stroke-linecap:butt;stroke-linejoin:miter;stroke:rgb(0%,0%,0%);stroke-opacity:1;stroke-miterlimit:10;" d="M 5839.414063 3758.267187 C 5833.203125 3761.43125 5827.109375 3764.751562 5821.289063 3768.15 C 5818.320313 3769.86875 5815.390625 3771.626562 5812.5 3773.423437 L 5812.734375 3749.86875 L 5814.179688 3605.454687 L 5878.710938 3605.454687 L 5880.078125 3739.907812 C 5865.46875 3745.728125 5852.070313 3751.782812 5839.414063 3758.267187 Z M 5839.414063 3758.267187 " transform="matrix(0.1,0,0,-0.1,0,1000.94)"/>
<path style=" stroke:none;fill-rule:nonzero;fill:rgb(32.499695%,7.099915%,14.099121%);fill-opacity:1;" d="M 584.644531 397.617188 C 583.589844 397.71875 582.535156 397.8125 581.480469 397.90625 C 580.613281 397.984375 579.734375 398.058594 578.777344 398.136719 L 579.082031 428.375 C 581.1875 428.867188 583.148438 429.355469 585.042969 429.859375 C 586.816406 430.332031 588.535156 430.820313 590.179688 431.324219 L 590.515625 398.136719 C 589.554688 398.058594 588.679688 397.984375 587.808594 397.90625 C 586.753906 397.8125 585.699219 397.71875 584.644531 397.617188 "/>
<path style="fill:none;stroke-width:21.75;stroke-linecap:butt;stroke-linejoin:miter;stroke:rgb(0%,0%,0%);stroke-opacity:1;stroke-miterlimit:10;" d="M 5846.445313 6033.228125 C 5835.898438 6032.2125 5825.351563 6031.275 5814.804688 6030.3375 C 5806.132813 6029.55625 5797.34375 6028.814062 5787.773438 6028.032812 L 5790.820313 5725.65 C 5811.875 5720.728125 5831.484375 5715.845312 5850.429688 5710.80625 C 5868.164063 5706.079687 5885.351563 5701.196875 5901.796875 5696.157812 L 5905.15625 6028.032812 C 5895.546875 6028.814062 5886.796875 6029.55625 5878.085938 6030.3375 C 5867.539063 6031.275 5856.992188 6032.2125 5846.445313 6033.228125 Z M 5846.445313 6033.228125 " transform="matrix(0.1,0,0,-0.1,0,1000.94)"/>
<path style=" stroke:none;fill-rule:nonzero;fill:rgb(70.599365%,75.299072%,21.598816%);fill-opacity:1;" d="M 639.847656 387.761719 C 626.421875 378.671875 608.3125 377.800781 592.335938 377.03125 L 592.21875 377.027344 L 592.214844 377.027344 C 591.101563 376.972656 589.984375 376.917969 588.871094 376.867188 C 587.4375 376.800781 586.003906 376.730469 584.570313 376.660156 C 582.476563 376.558594 579.710938 376.425781 576.910156 376.269531 C 565.945313 375.667969 553.003906 374.753906 540.148438 372.511719 C 530.863281 370.894531 523.066406 368.734375 516.3125 365.90625 C 507.582031 362.253906 500.6875 357.445313 495.816406 351.625 C 493.558594 348.921875 492.910156 345.972656 493.988281 343.316406 C 495.425781 339.777344 499.777344 337.140625 505.078125 336.59375 C 512.21875 335.863281 517.636719 337.761719 523.90625 339.960938 L 524.335938 340.109375 C 526.09375 340.726563 527.824219 341.40625 529.492188 342.0625 C 535.140625 344.28125 540.476563 346.375 546.597656 346.03125 C 551.214844 345.769531 554.503906 344.824219 556.65625 343.136719 C 557.773438 342.261719 557.621094 341.335938 555.882813 338.429688 C 555.707031 338.136719 555.527344 337.832031 555.359375 337.539063 C 548.421875 325.304688 528.785156 326.863281 518.238281 327.699219 C 516.652344 327.824219 515.28125 327.933594 514.152344 327.984375 C 510.75 328.125 502.183594 328.636719 496.050781 330.308594 C 489.253906 332.167969 484.480469 337.15625 483.585938 343.34375 C 482.488281 356.609375 494.082031 367.160156 504.007813 373.679688 C 511.058594 378.304688 519.242188 382.011719 529.027344 385.007813 L 529.03125 385.007813 C 533.558594 386.394531 538.429688 387.628906 543.914063 388.785156 C 553.734375 390.851563 564.363281 392.445313 577.363281 393.800781 L 577.222656 395.160156 L 577.363281 393.800781 C 577.953125 393.863281 578.550781 393.925781 579.152344 393.984375 C 580.953125 394.167969 582.8125 394.347656 584.785156 394.53125 C 584.785156 394.53125 584.789063 394.53125 584.789063 394.53125 C 585.886719 394.632813 586.984375 394.734375 588.085938 394.828125 C 589.355469 394.945313 590.644531 395.050781 592.195313 395.171875 L 592.8125 395.21875 C 604.9375 396.179688 618.675781 397.265625 628.734375 404.195313 C 628.738281 404.199219 628.746094 404.203125 628.753906 404.210938 C 628.871094 404.292969 629.117188 404.46875 629.183594 404.519531 C 629.25 404.570313 629.308594 404.621094 629.367188 404.679688 C 629.449219 404.753906 629.542969 404.820313 629.640625 404.886719 C 629.738281 404.945313 629.824219 405.015625 629.90625 405.097656 C 633.125 408.304688 633.515625 413.484375 632.238281 416.9375 C 631.128906 419.945313 628.304688 421.242188 626.039063 422.28125 L 625.882813 422.351563 C 618.105469 425.925781 609.511719 427.605469 601.203125 429.230469 C 598.585938 429.742188 595.882813 430.269531 593.273438 430.847656 L 593.257813 432.308594 C 604.144531 435.945313 612.628906 440.558594 619.136719 446.386719 C 630.566406 443.601563 641.898438 439.695313 648.210938 430.566406 C 657.109375 417.699219 653.902344 398.199219 641.347656 388.828125 C 640.867188 388.46875 640.359375 388.109375 639.847656 387.761719 "/>
<path style="fill:none;stroke-width:21.75;stroke-linecap:butt;stroke-linejoin:miter;stroke:rgb(0%,0%,0%);stroke-opacity:1;stroke-miterlimit:10;" d="M 6398.476563 6131.782812 C 6264.21875 6222.68125 6083.125 6231.392187 5923.359375 6239.0875 L 5922.1875 6239.126562 L 5922.148438 6239.126562 C 5911.015625 6239.673437 5899.84375 6240.220312 5888.710938 6240.728125 C 5874.375 6241.392187 5860.039063 6242.095312 5845.703125 6242.798437 C 5824.765625 6243.814062 5797.109375 6245.142187 5769.101563 6246.704687 C 5659.453125 6252.720312 5530.039063 6261.860937 5401.484375 6284.282812 C 5308.632813 6300.454687 5230.664063 6322.05625 5163.125 6350.3375 C 5075.820313 6386.860937 5006.875 6434.946875 4958.164063 6493.15 C 4935.585938 6520.18125 4929.101563 6549.673437 4939.882813 6576.235937 C 4954.257813 6611.626562 4997.773438 6637.99375 5050.78125 6643.4625 C 5122.1875 6650.767187 5176.367188 6631.782812 5239.0625 6609.790625 L 5243.359375 6608.30625 C 5260.9375 6602.134375 5278.242188 6595.3375 5294.921875 6588.775 C 5351.40625 6566.5875 5404.765625 6545.65 5465.976563 6549.0875 C 5512.148438 6551.704687 5545.039063 6561.157812 5566.5625 6578.032812 C 5577.734375 6586.782812 5576.210938 6596.040625 5558.828125 6625.103125 C 5557.070313 6628.032812 5555.273438 6631.079687 5553.59375 6634.009375 C 5484.21875 6756.353125 5287.851563 6740.767187 5182.382813 6732.407812 C 5166.523438 6731.157812 5152.8125 6730.064062 5141.523438 6729.55625 C 5107.5 6728.15 5021.835938 6723.032812 4960.507813 6706.314062 C 4892.539063 6687.720312 4844.804688 6637.8375 4835.859375 6575.9625 C 4824.882813 6443.30625 4940.820313 6337.798437 5040.078125 6272.603125 C 5110.585938 6226.353125 5192.421875 6189.282812 5290.273438 6159.321875 L 5290.3125 6159.321875 C 5335.585938 6145.454687 5384.296875 6133.110937 5439.140625 6121.548437 C 5537.34375 6100.884375 5643.632813 6084.946875 5773.632813 6071.392187 L 5772.226563 6057.798437 L 5773.632813 6071.392187 C 5779.53125 6070.767187 5785.507813 6070.142187 5791.523438 6069.55625 C 5809.53125 6067.720312 5828.125 6065.923437 5847.851563 6064.0875 C 5847.851563 6064.0875 5847.890625 6064.0875 5847.890625 6064.0875 C 5858.867188 6063.071875 5869.84375 6062.05625 5880.859375 6061.11875 C 5893.554688 6059.946875 5906.445313 6058.892187 5921.953125 6057.68125 L 5928.125 6057.2125 C 6049.375 6047.603125 6186.757813 6036.74375 6287.34375 5967.446875 C 6287.382813 5967.407812 6287.460938 5967.36875 6287.539063 5967.290625 C 6288.710938 5966.470312 6291.171875 5964.7125 6291.835938 5964.204687 C 6292.5 5963.696875 6293.085938 5963.189062 6293.671875 5962.603125 C 6294.492188 5961.860937 6295.429688 5961.196875 6296.40625 5960.532812 C 6297.382813 5959.946875 6298.242188 5959.24375 6299.0625 5958.423437 C 6331.25 5926.353125 6335.15625 5874.55625 6322.382813 5840.025 C 6311.289063 5809.946875 6283.046875 5796.978125 6260.390625 5786.5875 L 6258.828125 5785.884375 C 6181.054688 5750.142187 6095.117188 5733.345312 6012.03125 5717.095312 C 5985.859375 5711.978125 5958.828125 5706.704687 5932.734375 5700.923437 L 5932.578125 5686.314062 C 6041.445313 5649.946875 6126.289063 5603.814062 6191.367188 5545.532812 C 6305.664063 5573.384375 6418.984375 5612.446875 6482.109375 5703.735937 C 6571.09375 5832.407812 6539.023438 6027.407812 6413.476563 6121.11875 C 6408.671875 6124.7125 6403.59375 6128.30625 6398.476563 6131.782812 Z M 6398.476563 6131.782812 " transform="matrix(0.1,0,0,-0.1,0,1000.94)"/>
<path style=" stroke:none;fill-rule:nonzero;fill:rgb(92.89856%,4.299927%,8.198547%);fill-opacity:1;" d="M 673.238281 330.3125 C 667.105469 328.636719 658.539063 328.125 655.140625 327.980469 C 654.007813 327.933594 652.640625 327.824219 651.050781 327.699219 C 640.503906 326.863281 620.867188 325.308594 613.929688 337.539063 C 613.761719 337.832031 613.582031 338.136719 613.40625 338.429688 C 611.667969 341.335938 611.515625 342.261719 612.632813 343.136719 C 614.785156 344.824219 618.074219 345.769531 622.695313 346.03125 C 628.816406 346.378906 634.148438 344.28125 639.796875 342.0625 C 641.46875 341.40625 643.195313 340.726563 644.953125 340.109375 L 645.382813 339.960938 C 651.65625 337.761719 657.070313 335.863281 664.214844 336.597656 C 669.511719 337.140625 673.863281 339.777344 675.300781 343.316406 C 676.382813 345.972656 675.730469 348.921875 673.472656 351.625 C 668.601563 357.445313 661.710938 362.253906 652.980469 365.90625 C 646.222656 368.734375 638.425781 370.898438 629.140625 372.515625 C 622.421875 373.683594 615.667969 374.492188 609.1875 375.085938 C 612.019531 375.386719 614.867188 375.769531 617.679688 376.269531 C 627.136719 377.957031 634.761719 380.746094 640.957031 384.792969 C 650.433594 381.835938 658.398438 378.199219 665.28125 373.679688 C 675.207031 367.164063 686.800781 356.613281 685.703125 343.34375 C 684.808594 337.15625 680.035156 332.164063 673.238281 330.3125 "/>
<path style="fill:none;stroke-width:21.75;stroke-linecap:butt;stroke-linejoin:miter;stroke:rgb(0%,0%,0%);stroke-opacity:1;stroke-miterlimit:10;" d="M 6732.382813 6706.275 C 6671.054688 6723.032812 6585.390625 6728.15 6551.40625 6729.595312 C 6540.078125 6730.064062 6526.40625 6731.157812 6510.507813 6732.407812 C 6405.039063 6740.767187 6208.671875 6756.314062 6139.296875 6634.009375 C 6137.617188 6631.079687 6135.820313 6628.032812 6134.0625 6625.103125 C 6116.679688 6596.040625 6115.15625 6586.782812 6126.328125 6578.032812 C 6147.851563 6561.157812 6180.742188 6551.704687 6226.953125 6549.0875 C 6288.164063 6545.610937 6341.484375 6566.5875 6397.96875 6588.775 C 6414.6875 6595.3375 6431.953125 6602.134375 6449.53125 6608.30625 L 6453.828125 6609.790625 C 6516.5625 6631.782812 6570.703125 6650.767187 6642.148438 6643.423437 C 6695.117188 6637.99375 6738.632813 6611.626562 6753.007813 6576.235937 C 6763.828125 6549.673437 6757.304688 6520.18125 6734.726563 6493.15 C 6686.015625 6434.946875 6617.109375 6386.860937 6529.804688 6350.3375 C 6462.226563 6322.05625 6384.257813 6300.415625 6291.40625 6284.24375 C 6224.21875 6272.564062 6156.679688 6264.478125 6091.875 6258.540625 C 6120.195313 6255.532812 6148.671875 6251.704687 6176.796875 6246.704687 C 6271.367188 6229.829687 6347.617188 6201.939062 6409.570313 6161.470312 C 6504.335938 6191.040625 6583.984375 6227.407812 6652.8125 6272.603125 C 6752.070313 6337.759375 6868.007813 6443.267187 6857.03125 6575.9625 C 6848.085938 6637.8375 6800.351563 6687.759375 6732.382813 6706.275 Z M 6732.382813 6706.275 " transform="matrix(0.1,0,0,-0.1,0,1000.94)"/>
<path style=" stroke:none;fill-rule:nonzero;fill:rgb(92.89856%,4.299927%,8.198547%);fill-opacity:1;" d="M 617.65625 449.210938 L 618.703125 448.078125 L 617.65625 449.210938 C 611.195313 443.238281 602.550781 438.554688 591.226563 434.890625 L 591.703125 433.421875 L 591.226563 434.890625 C 589.046875 434.183594 586.699219 433.496094 584.246094 432.84375 C 582.039063 432.253906 579.734375 431.6875 577.207031 431.113281 L 577.550781 429.605469 L 577.203125 431.113281 C 576.957031 431.054688 576.710938 431 576.460938 430.945313 L 576.449219 430.941406 C 573.710938 430.328125 570.851563 429.769531 568.085938 429.230469 C 559.777344 427.605469 551.183594 425.925781 543.40625 422.351563 L 543.246094 422.28125 C 540.980469 421.238281 538.164063 419.945313 537.050781 416.9375 C 535.773438 413.480469 536.164063 408.304688 539.382813 405.097656 C 539.464844 405.015625 539.550781 404.945313 539.648438 404.882813 C 539.746094 404.820313 539.839844 404.753906 539.925781 404.675781 C 539.980469 404.621094 540.039063 404.566406 540.105469 404.519531 C 540.171875 404.46875 540.417969 404.292969 540.535156 404.210938 C 540.542969 404.203125 540.550781 404.199219 540.558594 404.195313 C 548.464844 398.75 558.644531 396.910156 568.53125 395.910156 C 559.140625 394.757813 550.96875 393.425781 543.28125 391.808594 C 537.988281 390.691406 533.257813 389.503906 528.839844 388.179688 C 528.539063 388.394531 528.234375 388.609375 527.945313 388.828125 C 515.390625 398.199219 512.179688 417.699219 521.078125 430.566406 C 527.535156 439.90625 539.246094 443.78125 550.941406 446.574219 L 550.585938 448.078125 L 550.941406 446.574219 C 551.769531 446.773438 552.660156 446.980469 553.742188 447.226563 C 557.355469 448.050781 561.105469 448.777344 564.730469 449.480469 C 569.144531 450.335938 573.710938 451.21875 578.160156 452.300781 C 580.671875 452.910156 582.941406 453.53125 585.101563 454.199219 C 587.589844 454.96875 589.855469 455.78125 592.039063 456.679688 C 592.769531 456.980469 593.503906 457.296875 594.210938 457.617188 C 598.0625 459.359375 601.414063 461.550781 604.175781 464.128906 C 607.160156 466.910156 609.308594 470.019531 610.5625 473.363281 C 611.511719 475.890625 611.929688 478.53125 611.808594 481.210938 C 611.683594 484.039063 610.953125 486.933594 609.636719 489.808594 C 605.703125 498.417969 598.53125 503.605469 592.503906 507.171875 L 592.453125 511.953125 C 596.878906 514.265625 601.464844 516.835938 605.523438 519.996094 C 606.519531 519.402344 607.484375 518.800781 608.394531 518.195313 C 611.839844 515.914063 615.378906 512.871094 619.203125 508.898438 C 623.902344 504.027344 628.726563 494.074219 630.117188 488.1875 C 632.453125 478.3125 630.933594 468.070313 625.839844 459.347656 C 623.671875 455.636719 620.921875 452.226563 617.65625 449.210938 "/>
<path style="fill:none;stroke-width:21.75;stroke-linecap:butt;stroke-linejoin:miter;stroke:rgb(0%,0%,0%);stroke-opacity:1;stroke-miterlimit:10;" d="M 6176.5625 5517.290625 L 6187.03125 5528.61875 L 6176.5625 5517.290625 C 6111.953125 5577.017187 6025.507813 5623.853125 5912.265625 5660.49375 L 5917.03125 5675.18125 L 5912.265625 5660.49375 C 5890.46875 5667.564062 5866.992188 5674.439062 5842.460938 5680.9625 C 5820.390625 5686.860937 5797.34375 5692.525 5772.070313 5698.267187 L 5775.507813 5713.345312 L 5772.03125 5698.267187 C 5769.570313 5698.853125 5767.109375 5699.4 5764.609375 5699.946875 L 5764.492188 5699.985937 C 5737.109375 5706.11875 5708.515625 5711.704687 5680.859375 5717.095312 C 5597.773438 5733.345312 5511.835938 5750.142187 5434.0625 5785.884375 L 5432.460938 5786.5875 C 5409.804688 5797.017187 5381.640625 5809.946875 5370.507813 5840.025 C 5357.734375 5874.595312 5361.640625 5926.353125 5393.828125 5958.423437 C 5394.648438 5959.24375 5395.507813 5959.946875 5396.484375 5960.571875 C 5397.460938 5961.196875 5398.398438 5961.860937 5399.257813 5962.642187 C 5399.804688 5963.189062 5400.390625 5963.735937 5401.054688 5964.204687 C 5401.71875 5964.7125 5404.179688 5966.470312 5405.351563 5967.290625 C 5405.429688 5967.36875 5405.507813 5967.407812 5405.585938 5967.446875 C 5484.648438 6021.9 5586.445313 6040.298437 5685.3125 6050.298437 C 5591.40625 6061.821875 5509.6875 6075.142187 5432.8125 6091.314062 C 5379.882813 6102.485937 5332.578125 6114.360937 5288.398438 6127.603125 C 5285.390625 6125.454687 5282.34375 6123.30625 5279.453125 6121.11875 C 5153.90625 6027.407812 5121.796875 5832.407812 5210.78125 5703.735937 C 5275.351563 5610.3375 5392.460938 5571.5875 5509.414063 5543.657812 L 5505.859375 5528.61875 L 5509.414063 5543.657812 C 5517.695313 5541.665625 5526.601563 5539.595312 5537.421875 5537.134375 C 5573.554688 5528.892187 5611.054688 5521.626562 5647.304688 5514.595312 C 5691.445313 5506.040625 5737.109375 5497.2125 5781.601563 5486.392187 C 5806.71875 5480.298437 5829.414063 5474.0875 5851.015625 5467.407812 C 5875.898438 5459.7125 5898.554688 5451.5875 5920.390625 5442.603125 C 5927.695313 5439.595312 5935.039063 5436.43125 5942.109375 5433.228125 C 5980.625 5415.80625 6014.140625 5393.892187 6041.757813 5368.110937 C 6071.601563 5340.298437 6093.085938 5309.204687 6105.625 5275.767187 C 6115.117188 5250.49375 6119.296875 5224.0875 6118.085938 5197.290625 C 6116.835938 5169.009375 6109.53125 5140.064062 6096.367188 5111.314062 C 6057.03125 5025.220312 5985.3125 4973.345312 5925.039063 4937.68125 L 5924.53125 4889.86875 C 5968.789063 4866.74375 6014.648438 4841.040625 6055.234375 4809.439062 C 6065.195313 4815.376562 6074.84375 4821.392187 6083.945313 4827.446875 C 6118.398438 4850.259375 6153.789063 4880.689062 6192.03125 4920.415625 C 6239.023438 4969.126562 6287.265625 5068.657812 6301.171875 5127.525 C 6324.53125 5226.275 6309.335938 5328.696875 6258.398438 5415.923437 C 6236.71875 5453.032812 6209.21875 5487.134375 6176.5625 5517.290625 Z M 6176.5625 5517.290625 " transform="matrix(0.1,0,0,-0.1,0,1000.94)"/>
<path style=" stroke:none;fill-rule:nonzero;fill:rgb(32.499695%,7.099915%,14.099121%);fill-opacity:1;" d="M 576.535156 215.355469 C 576.78125 215.628906 576.933594 215.980469 576.9375 216.363281 L 578.523438 373.261719 C 580.808594 373.386719 582.992188 373.492188 584.71875 373.574219 C 586.152344 373.644531 587.585938 373.714844 589.019531 373.78125 C 589.601563 373.808594 590.179688 373.835938 590.761719 373.863281 L 592.351563 216.363281 C 592.355469 215.980469 592.507813 215.628906 592.753906 215.355469 C 590.230469 216.320313 587.507813 216.875 584.644531 216.875 C 581.785156 216.875 579.058594 216.320313 576.535156 215.355469 "/>
<path style="fill:none;stroke-width:21.75;stroke-linecap:butt;stroke-linejoin:miter;stroke:rgb(0%,0%,0%);stroke-opacity:1;stroke-miterlimit:10;" d="M 5765.351563 7855.845312 C 5767.8125 7853.110937 5769.335938 7849.595312 5769.375 7845.767187 L 5785.234375 6276.782812 C 5808.085938 6275.532812 5829.921875 6274.478125 5847.1875 6273.657812 C 5861.523438 6272.954687 5875.859375 6272.251562 5890.195313 6271.5875 C 5896.015625 6271.314062 5901.796875 6271.040625 5907.617188 6270.767187 L 5923.515625 7845.767187 C 5923.554688 7849.595312 5925.078125 7853.110937 5927.539063 7855.845312 C 5902.304688 7846.196875 5875.078125 7840.65 5846.445313 7840.65 C 5817.851563 7840.65 5790.585938 7846.196875 5765.351563 7855.845312 Z M 5765.351563 7855.845312 " transform="matrix(0.1,0,0,-0.1,0,1000.94)"/>
<path style=" stroke:none;fill-rule:nonzero;fill:rgb(100%,60.398865%,0%);fill-opacity:1;" d="M 593.171875 215.011719 C 599.171875 211.835938 602.898438 205.652344 602.898438 198.875 C 602.898438 188.808594 594.710938 180.621094 584.644531 180.621094 C 574.578125 180.621094 566.390625 188.808594 566.390625 198.875 C 566.390625 205.652344 570.117188 211.835938 576.117188 215.011719 C 576.28125 215.101563 576.414063 215.222656 576.535156 215.355469 C 579.058594 216.320313 581.78125 216.875 584.644531 216.875 C 587.507813 216.875 590.234375 216.320313 592.753906 215.355469 C 592.875 215.222656 593.007813 215.101563 593.171875 215.011719 "/>
<path style="fill:none;stroke-width:21.75;stroke-linecap:butt;stroke-linejoin:miter;stroke:rgb(0%,0%,0%);stroke-opacity:1;stroke-miterlimit:10;" d="M 5931.71875 7859.282812 C 5991.71875 7891.040625 6028.984375 7952.876562 6028.984375 8020.65 C 6028.984375 8121.314062 5947.109375 8203.189062 5846.445313 8203.189062 C 5745.78125 8203.189062 5663.90625 8121.314062 5663.90625 8020.65 C 5663.90625 7952.876562 5701.171875 7891.040625 5761.171875 7859.282812 C 5762.8125 7858.384375 5764.140625 7857.173437 5765.351563 7855.845312 C 5790.585938 7846.196875 5817.8125 7840.65 5846.445313 7840.65 C 5875.078125 7840.65 5902.34375 7846.196875 5927.539063 7855.845312 C 5928.75 7857.173437 5930.078125 7858.384375 5931.71875 7859.282812 Z M 5931.71875 7859.282812 " transform="matrix(0.1,0,0,-0.1,0,1000.94)"/>
<path style=" stroke:none;fill-rule:nonzero;fill:rgb(100%,60.398865%,0%);fill-opacity:1;" d="M 577.796875 453.800781 L 577.800781 453.773438 "/>
<path style="fill:none;stroke-width:21.75;stroke-linecap:butt;stroke-linejoin:miter;stroke:rgb(0%,0%,0%);stroke-opacity:1;stroke-miterlimit:10;" d="M 5777.96875 5471.392187 L 5778.007813 5471.665625 Z M 5777.96875 5471.392187 " transform="matrix(0.1,0,0,-0.1,0,1000.94)"/>
<path style=" stroke:none;fill-rule:nonzero;fill:rgb(32.499695%,7.099915%,14.099121%);fill-opacity:1;" d="M 579.359375 455.785156 L 579.859375 505.382813 C 581.839844 506.503906 583.808594 507.53125 585.351563 508.320313 C 586.246094 508.78125 587.160156 509.246094 588.046875 509.695313 C 588.484375 509.917969 588.933594 510.144531 589.378906 510.371094 L 589.898438 459.148438 C 588.09375 458.433594 586.21875 457.777344 584.1875 457.148438 C 582.65625 456.675781 581.0625 456.222656 579.359375 455.785156 "/>
<path style="fill:none;stroke-width:21.75;stroke-linecap:butt;stroke-linejoin:miter;stroke:rgb(0%,0%,0%);stroke-opacity:1;stroke-miterlimit:10;" d="M 5793.59375 5451.548437 L 5798.59375 4955.571875 C 5818.398438 4944.360937 5838.085938 4934.0875 5853.515625 4926.196875 C 5862.460938 4921.5875 5871.601563 4916.939062 5880.46875 4912.446875 C 5884.84375 4910.220312 5889.335938 4907.954687 5893.789063 4905.689062 L 5898.984375 5417.915625 C 5880.9375 5425.064062 5862.1875 5431.626562 5841.875 5437.915625 C 5826.5625 5442.642187 5810.625 5447.173437 5793.59375 5451.548437 Z M 5793.59375 5451.548437 " transform="matrix(0.1,0,0,-0.1,0,1000.94)"/>
<path style=" stroke:none;fill-rule:nonzero;fill:rgb(100%,100%,100%);fill-opacity:1;" d="M 574.210938 252.03125 C 569.34375 253.160156 562.871094 251.933594 559.886719 247.992188 C 557.460938 244.789063 558.429688 240.347656 559.265625 236.761719 C 560.320313 232.222656 561.765625 227.617188 561.378906 222.902344 C 560.449219 211.605469 548.148438 206.210938 538.089844 207.039063 C 525.703125 208.058594 513.890625 214.46875 503.265625 220.457031 C 491.175781 227.269531 479.632813 235.007813 467.515625 241.773438 C 440.617188 256.785156 408.523438 260.050781 378.414063 263.488281 C 378.429688 263.59375 378.445313 263.695313 378.464844 263.796875 C 378.464844 263.800781 378.464844 263.800781 378.464844 263.804688 C 378.542969 264.25 378.640625 264.65625 378.753906 265.027344 C 380.425781 270.605469 386.1875 273.144531 391.644531 274.328125 C 401.992188 276.574219 413.035156 275.921875 423.519531 275.371094 C 418.734375 276.667969 413.542969 282.832031 418.371094 287.203125 C 421.367188 289.917969 426.148438 289.976563 429.921875 289.644531 C 437.894531 288.941406 445.664063 285.988281 452.917969 282.769531 C 448.023438 285.285156 441.78125 292.664063 448.082031 297.320313 C 451.503906 299.851563 456.402344 299.761719 460.410156 299.230469 C 468.496094 298.15625 476.246094 294.773438 483.417969 291.042969 C 479.390625 294.53125 475.371094 301.78125 481.570313 305.371094 C 485.21875 307.484375 489.992188 307.300781 494.023438 306.832031 C 501.964844 305.910156 509.695313 303.21875 517.058594 300.210938 C 514.449219 302.304688 510.296875 305.921875 511.234375 309.78125 C 512.023438 313.027344 516.0625 314.320313 518.910156 314.921875 C 529.921875 317.238281 542.484375 314.09375 552.371094 309.222656 C 550.140625 311.261719 547.703125 314.738281 550.808594 317.167969 C 553.796875 319.511719 558.464844 319.625 562.070313 319.484375 C 566.410156 319.320313 570.792969 318.445313 574.863281 316.859375 "/>
<path style="fill:none;stroke-width:21.75;stroke-linecap:butt;stroke-linejoin:miter;stroke:rgb(0%,0%,0%);stroke-opacity:1;stroke-miterlimit:10;" d="M 5742.109375 7489.0875 C 5693.4375 7477.798437 5628.710938 7490.064062 5598.867188 7529.478125 C 5574.609375 7561.509375 5584.296875 7605.923437 5592.65625 7641.782812 C 5603.203125 7687.173437 5617.65625 7733.228125 5613.789063 7780.376562 C 5604.492188 7893.345312 5481.484375 7947.290625 5380.898438 7939.009375 C 5257.03125 7928.814062 5138.90625 7864.7125 5032.65625 7804.829687 C 4911.757813 7736.704687 4796.328125 7659.321875 4675.15625 7591.665625 C 4406.171875 7441.548437 4085.234375 7408.892187 3784.140625 7374.517187 C 3784.296875 7373.4625 3784.453125 7372.446875 3784.648438 7371.43125 C 3784.648438 7371.392187 3784.648438 7371.392187 3784.648438 7371.353125 C 3785.429688 7366.9 3786.40625 7362.8375 3787.539063 7359.126562 C 3804.257813 7303.345312 3861.875 7277.954687 3916.445313 7266.11875 C 4019.921875 7243.657812 4130.351563 7250.18125 4235.195313 7255.689062 C 4187.34375 7242.720312 4135.429688 7181.079687 4183.710938 7137.36875 C 4213.671875 7110.220312 4261.484375 7109.634375 4299.21875 7112.954687 C 4378.945313 7119.985937 4456.640625 7149.517187 4529.179688 7181.704687 C 4480.234375 7156.548437 4417.8125 7082.759375 4480.820313 7036.196875 C 4515.039063 7010.884375 4564.023438 7011.782812 4604.101563 7017.095312 C 4684.960938 7027.8375 4762.460938 7061.665625 4834.179688 7098.970312 C 4793.90625 7064.0875 4753.710938 6991.5875 4815.703125 6955.689062 C 4852.1875 6934.55625 4899.921875 6936.392187 4940.234375 6941.079687 C 5019.648438 6950.298437 5096.953125 6977.2125 5170.585938 7007.290625 C 5144.492188 6986.353125 5102.96875 6950.18125 5112.34375 6911.5875 C 5120.234375 6879.126562 5160.625 6866.196875 5189.101563 6860.18125 C 5299.21875 6837.017187 5424.84375 6868.4625 5523.710938 6917.173437 C 5501.40625 6896.782812 5477.03125 6862.017187 5508.085938 6837.720312 C 5537.96875 6814.282812 5584.648438 6813.15 5620.703125 6814.55625 C 5664.101563 6816.196875 5707.929688 6824.946875 5748.632813 6840.80625 Z M 5742.109375 7489.0875 " transform="matrix(0.1,0,0,-0.1,0,1000.94)"/>
<path style=" stroke:none;fill-rule:nonzero;fill:rgb(100%,100%,100%);fill-opacity:1;" d="M 701.773438 241.769531 C 689.65625 235.007813 678.117188 227.269531 666.027344 220.457031 C 655.398438 214.46875 643.589844 208.058594 631.199219 207.039063 C 621.140625 206.210938 608.839844 211.605469 607.914063 222.902344 C 607.527344 227.617188 608.96875 232.222656 610.027344 236.761719 C 610.863281 240.347656 611.832031 244.785156 609.402344 247.992188 C 606.417969 251.9375 599.945313 253.160156 595.078125 252.03125 L 594.425781 316.859375 C 598.496094 318.445313 602.878906 319.316406 607.222656 319.484375 C 610.828125 319.625 615.492188 319.511719 618.484375 317.167969 C 621.585938 314.738281 619.152344 311.261719 616.917969 309.226563 C 626.804688 314.089844 639.371094 317.238281 650.378906 314.921875 C 653.230469 314.320313 657.265625 313.027344 658.054688 309.78125 C 658.996094 305.921875 654.839844 302.304688 652.230469 300.210938 C 659.59375 303.21875 667.324219 305.910156 675.269531 306.832031 C 679.296875 307.296875 684.074219 307.484375 687.71875 305.371094 C 693.917969 301.78125 689.902344 294.53125 685.871094 291.039063 C 693.042969 294.773438 700.796875 298.15625 708.878906 299.230469 C 712.886719 299.761719 717.785156 299.851563 721.210938 297.320313 C 727.507813 292.664063 721.269531 285.285156 716.371094 282.769531 C 723.625 285.988281 731.394531 288.941406 739.367188 289.644531 C 743.144531 289.976563 747.921875 289.917969 750.921875 287.203125 C 755.746094 282.835938 750.554688 276.664063 745.769531 275.371094 C 756.257813 275.921875 767.300781 276.574219 777.644531 274.328125 C 783.09375 273.144531 788.84375 270.613281 790.523438 265.054688 C 790.644531 264.679688 790.742188 264.261719 790.824219 263.804688 C 790.824219 263.800781 790.824219 263.796875 790.828125 263.796875 C 790.84375 263.695313 790.859375 263.59375 790.878906 263.488281 C 760.765625 260.046875 728.671875 256.785156 701.773438 241.769531 "/>
<path style="fill:none;stroke-width:21.75;stroke-linecap:butt;stroke-linejoin:miter;stroke:rgb(0%,0%,0%);stroke-opacity:1;stroke-miterlimit:10;" d="M 7017.734375 7591.704687 C 6896.5625 7659.321875 6781.171875 7736.704687 6660.273438 7804.829687 C 6553.984375 7864.7125 6435.898438 7928.814062 6311.992188 7939.009375 C 6211.40625 7947.290625 6088.398438 7893.345312 6079.140625 7780.376562 C 6075.273438 7733.228125 6089.6875 7687.173437 6100.273438 7641.782812 C 6108.632813 7605.923437 6118.320313 7561.548437 6094.023438 7529.478125 C 6064.179688 7490.025 5999.453125 7477.798437 5950.78125 7489.0875 L 5944.257813 6840.80625 C 5984.960938 6824.946875 6028.789063 6816.235937 6072.226563 6814.55625 C 6108.28125 6813.15 6154.921875 6814.282812 6184.84375 6837.720312 C 6215.859375 6862.017187 6191.523438 6896.782812 6169.179688 6917.134375 C 6268.046875 6868.501562 6393.710938 6837.017187 6503.789063 6860.18125 C 6532.304688 6866.196875 6572.65625 6879.126562 6580.546875 6911.5875 C 6589.960938 6950.18125 6548.398438 6986.353125 6522.304688 7007.290625 C 6595.9375 6977.2125 6673.242188 6950.298437 6752.695313 6941.079687 C 6792.96875 6936.43125 6840.742188 6934.55625 6877.1875 6955.689062 C 6939.179688 6991.5875 6899.023438 7064.0875 6858.710938 7099.009375 C 6930.429688 7061.665625 7007.96875 7027.8375 7088.789063 7017.095312 C 7128.867188 7011.782812 7177.851563 7010.884375 7212.109375 7036.196875 C 7275.078125 7082.759375 7212.695313 7156.548437 7163.710938 7181.704687 C 7236.25 7149.517187 7313.945313 7119.985937 7393.671875 7112.954687 C 7431.445313 7109.634375 7479.21875 7110.220312 7509.21875 7137.36875 C 7557.460938 7181.040625 7505.546875 7242.759375 7457.695313 7255.689062 C 7562.578125 7250.18125 7673.007813 7243.657812 7776.445313 7266.11875 C 7830.9375 7277.954687 7888.4375 7303.267187 7905.234375 7358.853125 C 7906.445313 7362.603125 7907.421875 7366.782812 7908.242188 7371.353125 C 7908.242188 7371.392187 7908.242188 7371.43125 7908.28125 7371.43125 C 7908.4375 7372.446875 7908.59375 7373.4625 7908.789063 7374.517187 C 7607.65625 7408.93125 7286.71875 7441.548437 7017.734375 7591.704687 Z M 7017.734375 7591.704687 " transform="matrix(0.1,0,0,-0.1,0,1000.94)"/>
<path style=" stroke:none;fill-rule:nonzero;fill:rgb(0.799561%,0.799561%,15.699768%);fill-opacity:1;" d="M 207.574219 902.046875 L 198.417969 896.078125 L 192.449219 905.234375 L 201.605469 911.203125 Z M 207.574219 902.046875 "/>
<g clip-path="url(#clip2)" clip-rule="nonzero">
<path style=" stroke:none;fill-rule:nonzero;fill:rgb(0.799561%,0.799561%,15.699768%);fill-opacity:1;" d="M 205.574219 942.777344 C 199.222656 944.835938 192.042969 946.023438 184.039063 946.339844 C 187.339844 941.230469 191.253906 937.171875 195.773438 934.164063 C 200.296875 931.15625 204.660156 929.652344 208.867188 929.652344 C 211.125 929.652344 213.171875 930.058594 215.003906 930.875 C 216.835938 931.6875 218.539063 932.953125 220.121094 934.671875 C 216.777344 938.019531 211.929688 940.71875 205.574219 942.777344 M 253.089844 957.089844 C 255.980469 954.445313 257.429688 949.660156 257.429688 942.742188 C 257.429688 939.851563 256.921875 936.800781 255.902344 933.585938 C 254.886719 930.378906 253.40625 927.167969 251.460938 923.957031 L 244.8125 934.941406 C 246.078125 936.164063 247.175781 937.53125 248.105469 939.046875 C 249.03125 940.5625 249.835938 942.335938 250.511719 944.371094 C 248.746094 945.183594 246.960938 945.761719 245.152344 946.101563 C 243.34375 946.441406 240.789063 946.609375 237.488281 946.609375 L 230.09375 946.609375 L 230.09375 946.855469 C 229.4375 946.894531 228.804688 946.9375 228.230469 946.984375 C 226.261719 947.140625 224.304688 947.378906 222.363281 947.695313 C 224.671875 944.890625 226.351563 942.269531 227.414063 939.828125 C 228.476563 937.386719 229.007813 934.921875 229.007813 932.433594 C 229.007813 928.003906 227.585938 924.328125 224.734375 921.410156 C 221.886719 918.496094 218.359375 917.035156 214.15625 917.035156 C 207.824219 917.035156 200.828125 919.898438 193.164063 925.617188 C 185.496094 931.339844 179.605469 938.335938 175.492188 946.609375 L 165.660156 946.609375 C 162.402344 946.609375 159.65625 946.046875 157.414063 944.914063 C 155.179688 943.785156 152.546875 941.253906 149.515625 937.316406 L 142.460938 949.257813 C 143.726563 951.246094 144.972656 952.964844 146.191406 954.410156 C 147.414063 955.859375 148.65625 957.148438 149.921875 958.277344 C 150.328125 959.722656 150.621094 961.035156 150.804688 962.210938 C 150.984375 963.386719 151.074219 964.492188 151.074219 965.535156 C 151.074219 972.359375 148.804688 977.585938 144.257813 981.203125 C 139.714844 984.820313 133.144531 986.628906 124.554688 986.628906 C 117.230469 986.628906 111.597656 985.554688 107.664063 983.40625 C 103.730469 981.257813 101.765625 978.21875 101.765625 974.285156 C 101.765625 971.84375 102.183594 969.511719 103.019531 967.296875 C 103.855469 965.082031 105.246094 962.683594 107.191406 960.109375 L 103.800781 958.410156 C 101.222656 961.847656 99.289063 965.308594 98 968.789063 C 96.710938 972.269531 96.066406 975.800781 96.066406 979.371094 C 96.066406 985.972656 98.351563 991.21875 102.917969 995.105469 C 107.484375 998.996094 113.679688 1000.941406 121.503906 1000.941406 C 133.347656 1000.941406 142.121094 997.742188 147.820313 991.34375 C 153.519531 984.941406 156.546875 974.847656 156.910156 961.058594 L 163.421875 961.058594 C 164.371094 961.058594 165.421875 961.046875 166.574219 961.023438 C 167.726563 961 168.9375 960.96875 170.203125 960.921875 L 169.996094 961.601563 C 169.050781 964.449219 168.574219 966.300781 168.574219 967.160156 C 168.574219 968.109375 168.722656 968.878906 169.015625 969.46875 C 169.308594 970.054688 169.703125 970.351563 170.203125 970.351563 C 171.515625 970.351563 173.121094 968.40625 175.019531 964.515625 C 175.785156 962.980469 176.421875 961.78125 176.917969 960.921875 C 178.453125 960.695313 180.039063 960.527344 181.664063 960.414063 C 183.292969 960.300781 185.394531 960.242188 187.972656 960.242188 C 196.835938 960.242188 205.539063 960.46875 214.089844 960.921875 C 215.578125 961.011719 216.460938 961.058594 216.734375 961.058594 L 235.65625 961.058594 C 244.382813 961.058594 250.195313 959.734375 253.089844 957.089844 "/>
</g>
<path style=" stroke:none;fill-rule:nonzero;fill:rgb(0.799561%,0.799561%,15.699768%);fill-opacity:1;" d="M 232.738281 983.304688 L 241.898438 989.273438 L 247.867188 980.117188 L 238.710938 974.148438 Z M 232.738281 983.304688 "/>
<path style=" stroke:none;fill-rule:nonzero;fill:rgb(0.799561%,0.799561%,15.699768%);fill-opacity:1;" d="M 248.40625 980.117188 L 257.632813 985.949219 L 263.601563 976.859375 L 254.378906 970.890625 Z M 248.40625 980.117188 "/>
<path style=" stroke:none;fill-rule:nonzero;fill:rgb(0.799561%,0.799561%,15.699768%);fill-opacity:1;" d="M 414.382813 913.238281 L 405.226563 907.269531 L 399.257813 916.492188 L 408.414063 922.464844 Z M 414.382813 913.238281 "/>
<path style=" stroke:none;fill-rule:nonzero;fill:rgb(0.799561%,0.799561%,15.699768%);fill-opacity:1;" d="M 398.511719 916.628906 L 389.355469 910.660156 L 383.386719 919.820313 L 392.675781 925.652344 Z M 398.511719 916.628906 "/>
<path style=" stroke:none;fill-rule:nonzero;fill:rgb(0.799561%,0.799561%,15.699768%);fill-opacity:1;" d="M 356.527344 948.914063 C 356.480469 949.144531 356.457031 949.300781 356.457031 949.390625 C 354.332031 948.984375 352.253906 948.226563 350.21875 947.117188 C 348.183594 946.011719 346.011719 944.417969 343.707031 942.335938 C 344.566406 940.527344 345.59375 939.125 346.792969 938.132813 C 347.988281 937.136719 349.175781 936.640625 350.355469 936.640625 C 352.160156 936.640625 353.675781 937.511719 354.898438 939.25 C 356.117188 940.992188 356.730469 943.265625 356.730469 946.066406 C 356.730469 946.65625 356.660156 947.605469 356.527344 948.914063 M 439.683594 926.941406 L 436.902344 907.472656 C 436.585938 905.300781 436.335938 903.234375 436.15625 901.269531 C 435.972656 899.300781 435.882813 897.660156 435.882813 896.351563 C 435.882813 895.265625 436.144531 894.101563 436.664063 892.855469 C 437.183594 891.613281 438.164063 889.90625 439.613281 887.734375 L 430.320313 874.917969 L 424.625 882.851563 L 431.882813 932.433594 C 432.0625 933.476563 432.195313 934.4375 432.289063 935.316406 C 432.378906 936.199219 432.425781 937 432.425781 937.726563 C 432.425781 940.9375 431.394531 943.21875 429.339844 944.574219 C 427.28125 945.933594 423.71875 946.609375 418.65625 946.609375 L 417.84375 946.609375 C 413.5 946.476563 410.265625 945.773438 408.140625 944.507813 C 406.015625 943.242188 404.027344 940.460938 402.175781 936.164063 C 399.007813 940.324219 396.171875 943.105469 393.660156 944.507813 C 391.246094 945.855469 388.1875 946.550781 384.492188 946.601563 C 380.09375 946.554688 376.878906 946.25 374.871094 945.695313 C 372.679688 945.082031 370.476563 943.851563 368.261719 941.996094 C 366.359375 940.414063 363.941406 938.199219 361.003906 935.351563 C 356.433594 930.917969 353.066406 928.703125 350.898438 928.703125 C 348.183594 928.703125 344.835938 931.394531 340.859375 936.773438 C 339.636719 938.359375 338.6875 939.601563 338.007813 940.503906 C 336.425781 942.632813 334.367188 944.179688 331.835938 945.152344 C 329.679688 945.980469 327.011719 946.453125 323.835938 946.574219 L 314.945313 945.390625 L 307.554688 937.996094 L 301.382813 951.5625 C 301.742188 951.925781 302.308594 952.398438 303.078125 952.984375 C 307.371094 956.46875 309.519531 959.023438 309.519531 960.652344 C 309.519531 965.714844 306.46875 971.117188 300.363281 976.859375 C 294.257813 982.605469 286.933594 986.265625 278.386719 987.851563 L 270.246094 986.765625 L 270.246094 989.679688 C 273.277344 991.894531 276.09375 993.515625 278.691406 994.53125 C 281.292969 995.546875 283.925781 996.058594 286.59375 996.058594 C 293.964844 996.058594 300.058594 993.046875 304.875 987.035156 C 309.691406 981.019531 312.910156 972.359375 314.539063 961.058594 L 324.105469 961.058594 L 324.105469 960.984375 C 325.949219 960.789063 327.78125 960.148438 329.597656 959.058594 C 331.8125 957.722656 334.097656 955.65625 336.449219 952.851563 L 340.246094 952.851563 C 343.503906 956.242188 346.929688 958.945313 350.523438 960.957031 C 354.117188 962.96875 357.203125 963.976563 359.78125 963.976563 C 362.269531 963.976563 363.894531 961.261719 364.664063 955.835938 L 364.664063 955.765625 C 368.058594 957.664063 370.984375 959.023438 373.449219 959.835938 C 375.8125 960.617188 378.0625 961.015625 380.195313 961.042969 L 380.195313 961.058594 L 385.757813 961.058594 L 385.757813 961.015625 C 388.382813 960.914063 390.816406 960.347656 393.050781 959.261719 C 395.515625 958.0625 397.945313 956.152344 400.34375 953.527344 C 402.285156 956.195313 404.265625 958.117188 406.277344 959.292969 C 408.039063 960.324219 410.050781 960.875 412.277344 961.003906 L 412.277344 961.058594 L 417.84375 961.058594 L 417.84375 961.050781 C 421.949219 961.023438 425.382813 960.789063 428.117188 960.347656 C 431.035156 959.871094 433.171875 959.183594 434.527344 958.277344 C 435.792969 957.328125 437.128906 954.738281 438.527344 950.511719 C 439.929688 946.28125 440.632813 942.019531 440.632813 937.726563 C 440.632813 936.1875 440.539063 934.480469 440.359375 932.605469 C 440.179688 930.726563 439.953125 928.839844 439.683594 926.941406 "/>
<path style=" stroke:none;fill-rule:nonzero;fill:rgb(0.799561%,0.799561%,15.699768%);fill-opacity:1;" d="M 473.121094 893.160156 C 473.121094 891.804688 473.234375 890.347656 473.460938 888.785156 C 473.6875 887.226563 473.800781 886.265625 473.800781 885.902344 C 473.800781 885.316406 473.617188 884.796875 473.257813 884.34375 C 472.894531 883.890625 472.488281 883.664063 472.035156 883.664063 C 471.585938 883.710938 471.132813 883.871094 470.679688 884.140625 C 470.226563 884.410156 469.886719 884.726563 469.664063 885.089844 L 464.777344 893.703125 C 464.777344 903.335938 465.796875 914.695313 467.832031 927.789063 C 469.863281 940.878906 470.882813 949.144531 470.882813 952.578125 C 470.882813 953.121094 470.859375 953.855469 470.816406 954.785156 C 470.769531 955.710938 470.746094 956.378906 470.746094 956.785156 C 470.746094 958.683594 470.894531 960.074219 471.1875 960.957031 C 471.480469 961.835938 471.945313 962.277344 472.578125 962.277344 C 474.566406 962.277344 475.992188 960.910156 476.851563 958.175781 C 477.710938 955.4375 478.140625 950.839844 478.140625 944.371094 C 478.140625 937.542969 477.304688 928.410156 475.632813 916.96875 C 473.957031 905.53125 473.121094 897.59375 473.121094 893.160156 "/>
<path style=" stroke:none;fill-rule:nonzero;fill:rgb(0.799561%,0.799561%,15.699768%);fill-opacity:1;" d="M 541.355469 892.414063 L 532.199219 886.445313 L 526.164063 895.605469 L 535.523438 901.570313 Z M 541.355469 892.414063 "/>
<path style=" stroke:none;fill-rule:nonzero;fill:rgb(0.799561%,0.799561%,15.699768%);fill-opacity:1;" d="M 557.160156 889.226563 L 548.003906 883.257813 L 542.035156 892.414063 L 551.191406 898.382813 Z M 557.160156 889.226563 "/>
<path style=" stroke:none;fill-rule:nonzero;fill:rgb(0.799561%,0.799561%,15.699768%);fill-opacity:1;" d="M 655.375 980.117188 L 664.53125 985.949219 L 670.5 976.859375 L 661.34375 970.890625 Z M 655.375 980.117188 "/>
<path style=" stroke:none;fill-rule:nonzero;fill:rgb(0.799561%,0.799561%,15.699768%);fill-opacity:1;" d="M 639.503906 983.304688 L 648.796875 989.273438 L 654.628906 980.117188 L 645.472656 974.148438 Z M 639.503906 983.304688 "/>
<path style=" stroke:none;fill-rule:nonzero;fill:rgb(0.799561%,0.799561%,15.699768%);fill-opacity:1;" d="M 544.203125 938.878906 C 543.570313 938.921875 543.121094 938.945313 542.851563 938.945313 L 541.898438 938.945313 C 538.6875 938.945313 536.40625 938.765625 535.046875 938.402344 C 533.691406 938.042969 533.015625 937.453125 533.015625 936.640625 C 533.015625 935.417969 534.007813 934.253906 535.996094 933.148438 C 537.988281 932.039063 540.835938 931.054688 544.546875 930.195313 L 545.628906 938.8125 C 545.3125 938.8125 544.839844 938.832031 544.203125 938.878906 M 730.9375 905.101563 C 735.367188 903.15625 745.269531 899.585938 760.644531 894.382813 L 766.613281 880.207031 C 757.886719 883.054688 749.972656 886.039063 742.875 889.160156 C 735.773438 892.277344 730.03125 895.265625 725.644531 898.113281 C 721.53125 900.824219 718.863281 903.191406 717.640625 905.199219 C 716.421875 907.214844 715.8125 910.320313 715.8125 914.527344 C 715.8125 918.644531 718.839844 922.328125 724.898438 925.582031 C 727.070313 926.757813 728.855469 927.753906 730.257813 928.566406 C 735.820313 931.777344 739.570313 934.277344 741.519531 936.0625 C 743.460938 937.851563 744.433594 939.554688 744.433594 941.183594 C 744.433594 943.039063 743.167969 944.40625 740.636719 945.289063 C 738.101563 946.167969 734.214844 946.609375 728.96875 946.609375 L 713.84375 946.609375 C 707.921875 946.609375 703.671875 945.402344 701.09375 942.980469 C 698.515625 940.5625 696.886719 935.375 696.210938 927.414063 L 692.140625 879.527344 L 683.390625 887.734375 C 684.789063 899.671875 685.839844 909.226563 686.542969 916.394531 C 687.242188 923.5625 687.59375 928.253906 687.59375 930.464844 C 687.59375 936.527344 686.632813 940.730469 684.710938 943.082031 C 682.789063 945.433594 679.429688 946.609375 674.640625 946.609375 L 673.960938 946.609375 C 669.710938 946.609375 666.519531 945.976563 664.394531 944.710938 C 662.269531 943.445313 660.234375 940.597656 658.292969 936.164063 C 655.128906 940.324219 652.289063 943.105469 649.78125 944.507813 C 647.269531 945.910156 644.070313 946.609375 640.183594 946.609375 L 560.621094 946.609375 C 558.3125 946.609375 556.570313 946.046875 555.398438 944.914063 C 554.222656 943.785156 553.429688 941.90625 553.023438 939.285156 L 548.140625 908.421875 L 542.851563 916.019531 L 543.863281 923.546875 C 536.539063 926.714844 531.183594 930.128906 527.789063 933.789063 C 524.398438 937.453125 522.703125 941.589844 522.703125 946.203125 C 522.703125 947.695313 523.933594 948.972656 526.398438 950.035156 C 528.863281 951.097656 531.996094 951.628906 535.796875 951.628906 C 536.835938 951.628906 537.613281 951.617188 538.132813 951.59375 C 538.652344 951.574219 539.1875 951.519531 539.730469 951.425781 L 546.785156 944.371094 C 547.460938 950.386719 548.796875 954.671875 550.785156 957.226563 C 552.679688 959.660156 555.46875 960.917969 559.128906 961.035156 L 559.128906 961.058594 L 641.878906 961.058594 L 641.878906 961.015625 C 644.5 960.914063 646.9375 960.34375 649.171875 959.261719 C 651.632813 958.0625 654.0625 956.152344 656.460938 953.527344 C 658.402344 956.195313 660.382813 958.117188 662.394531 959.292969 C 664.15625 960.324219 666.167969 960.875 668.398438 961.003906 L 668.398438 961.058594 L 675.179688 961.058594 C 679.339844 961.058594 682.730469 960.019531 685.355469 957.9375 C 687.976563 955.859375 690.011719 952.601563 691.460938 948.171875 L 692.546875 948.171875 C 693.402344 952.691406 694.976563 955.96875 697.257813 958.003906 C 699.542969 960.039063 702.832031 961.058594 707.128906 961.058594 L 724.695313 961.058594 C 733.558594 961.058594 740.003906 959.523438 744.027344 956.445313 C 748.050781 953.371094 750.0625 948.417969 750.0625 941.589844 C 750.0625 936.84375 748.945313 932.535156 746.703125 928.667969 C 744.46875 924.804688 741.109375 921.378906 736.632813 918.394531 C 734.6875 917.128906 732.226563 915.679688 729.238281 914.050781 C 725.9375 912.246094 724.289063 910.820313 724.289063 909.78125 C 724.289063 908.605469 726.503906 907.042969 730.9375 905.101563 "/>
</g>
</svg>
